<?xml version="1.0" encoding="UTF-8"?><svg id="Calque_1" xmlns="http://www.w3.org/2000/svg" xmlns:xlink="http://www.w3.org/1999/xlink" viewBox="0 0 450 300"><defs><style>.cls-1{fill:url(#Dégradé_sans_nom_11-5);stroke-miterlimit:10;stroke-width:1px;}.cls-1,.cls-2,.cls-3,.cls-4,.cls-5,.cls-6,.cls-7,.cls-8,.cls-9,.cls-10,.cls-11{stroke:#1a1a1a;}.cls-2{fill:url(#Dégradé_sans_nom_11-4);stroke-miterlimit:10;stroke-width:1px;}.cls-3{fill:url(#Dégradé_sans_nom_11-2);stroke-miterlimit:10;stroke-width:1px;}.cls-4{fill:url(#Dégradé_sans_nom_11-3);stroke-miterlimit:10;stroke-width:1px;}.cls-5{fill:#1a1a1a;}.cls-5,.cls-7{stroke-width:10px;}.cls-5,.cls-7,.cls-8,.cls-9{stroke-linejoin:round;}.cls-5,.cls-7,.cls-8,.cls-9,.cls-12,.cls-10{stroke-linecap:round;}.cls-6{fill:url(#Dégradé_sans_nom_11-6);}.cls-6,.cls-12,.cls-10,.cls-11{stroke-miterlimit:10;}.cls-13{fill:url(#Dégradé_sans_nom_6);}.cls-13,.cls-14,.cls-15,.cls-16,.cls-17,.cls-18,.cls-19{stroke-width:0px;}.cls-14{fill:url(#Dégradé_sans_nom_5);}.cls-7,.cls-8,.cls-12,.cls-10{fill:none;}.cls-8{stroke-width:8px;}.cls-15{fill:url(#Dégradé_sans_nom_5-2);}.cls-16{fill:url(#Dégradé_sans_nom_6-2);}.cls-17{fill:url(#Dégradé_sans_nom_6-3);}.cls-9{stroke-width:3px;}.cls-9,.cls-11,.cls-18{fill:#316ae9;}.cls-12{stroke:#1d1d1b;}.cls-12,.cls-10{stroke-width:5px;}.cls-11{stroke-width:6px;}.cls-19{fill:url(#Dégradé_sans_nom_11);}</style><radialGradient id="Dégradé_sans_nom_11" cx="-199.73" cy="-26.83" fx="-199.73" fy="-26.83" r="103.43" gradientTransform="translate(158.76 -14.83) rotate(-90) scale(.55 -1.92)" gradientUnits="userSpaceOnUse"><stop offset="0" stop-color="#18d9c5"/><stop offset=".2" stop-color="#19d5c2"/><stop offset=".36" stop-color="#1dcbbb"/><stop offset=".51" stop-color="#25baaf"/><stop offset=".64" stop-color="#2fa39e"/><stop offset=".77" stop-color="#3d8488"/><stop offset=".87" stop-color="#496a75"/></radialGradient><linearGradient id="Dégradé_sans_nom_5" x1="96.42" y1="209.09" x2="82.87" y2="231.8" gradientTransform="translate(255.34 356.62) rotate(-90) scale(1 -1)" gradientUnits="userSpaceOnUse"><stop offset="0" stop-color="#18d9c5"/><stop offset=".85" stop-color="#496a75"/></linearGradient><linearGradient id="Dégradé_sans_nom_6" x1="132.69" y1="202.38" x2="132.95" y2="221" gradientTransform="translate(255.34 356.62) rotate(-90) scale(1 -1)" gradientUnits="userSpaceOnUse"><stop offset="0" stop-color="#18d9c5"/><stop offset=".2" stop-color="#1fc8b8"/><stop offset=".6" stop-color="#329c99"/><stop offset="1" stop-color="#496a75"/></linearGradient><linearGradient id="Dégradé_sans_nom_6-2" x1="116.88" y1="209.05" x2="115.78" y2="216.19" xlink:href="#Dégradé_sans_nom_6"/><linearGradient id="Dégradé_sans_nom_5-2" x1="1807.28" y1="208.58" x2="1793.73" y2="231.28" gradientTransform="translate(255.34 -1622.48) rotate(90)" xlink:href="#Dégradé_sans_nom_5"/><linearGradient id="Dégradé_sans_nom_6-3" x1="1951.06" y1="209.01" x2="1949.96" y2="216.16" gradientTransform="translate(255.34 -1745.86) rotate(90)" xlink:href="#Dégradé_sans_nom_6"/><radialGradient id="Dégradé_sans_nom_11-2" cx="-532.1" cy="-499.51" fx="-532.1" fy="-499.51" r="9.62" gradientTransform="translate(265.76 -261.62) rotate(1.1) scale(.46 -.63) skewX(-.88)" xlink:href="#Dégradé_sans_nom_11"/><radialGradient id="Dégradé_sans_nom_11-3" cx="-104.43" cy="-621.19" fx="-104.43" fy="-621.19" r="9.62" gradientTransform="translate(88.08 -387.65) rotate(2.39) scale(.55 -.68) skewX(-1.52)" xlink:href="#Dégradé_sans_nom_11"/><radialGradient id="Dégradé_sans_nom_11-4" cx="1.92" cy="-672.81" fx="1.92" fy="-672.81" r="9.62" gradientTransform="translate(41.49 -432.69) rotate(2.65) scale(.55 -.68) skewX(-1.67)" xlink:href="#Dégradé_sans_nom_11"/><radialGradient id="Dégradé_sans_nom_11-5" cx="384.66" cy="-861.42" fx="384.66" fy="-861.42" r="9.62" gradientTransform="translate(-124.38 -528.66) rotate(2.37) scale(.47 -.64) skewX(-1.84)" xlink:href="#Dégradé_sans_nom_11"/><radialGradient id="Dégradé_sans_nom_11-6" cx="-323.83" cy="-1286.7" fx="-323.83" fy="-1286.7" r="21.11" gradientTransform="translate(-183.12 -453.27) rotate(-37.11) scale(.41 -.41) skewX(-1.28)" xlink:href="#Dégradé_sans_nom_11"/></defs><rect class="cls-11" x="331.44" y="85.91" width="103.52" height="21.23"/><path class="cls-11" d="m429.57,81.98c7.48.33,12.23,8.91,11.86,15.29-.32,5.49-4.67,13.48-11.86,13.81-7.33.33-17.27-7.32-17.26-14.55,0-7.2,9.88-14.88,17.26-14.55h0Z"/><path class="cls-9" d="m429.03,105.41c.43-.2,9.4-.39,9.79-.25"/><path class="cls-9" d="m429.25,87.16c.43.2,9.4.39,9.79.25"/><path class="cls-9" d="m430.1,94.07c1.11-.23,9.11-.31,10.18-.11"/><path class="cls-9" d="m430.3,98.89c1.11.23,9.11.31,10.18.11"/><rect class="cls-11" x="331.83" y="48.61" width="103.52" height="21.23"/><path class="cls-11" d="m429.95,44.67c7.48.33,12.23,8.91,11.86,15.29-.32,5.49-4.67,13.48-11.86,13.81-7.33.33-17.27-7.32-17.26-14.55,0-7.2,9.88-14.88,17.26-14.55h0Z"/><path class="cls-9" d="m429.42,68.09c.43-.2,9.4-.39,9.79-.25"/><path class="cls-9" d="m429.64,49.85c.43.2,9.4.39,9.79.25"/><path class="cls-9" d="m430.49,56.76c1.11-.23,9.11-.31,10.18-.11"/><path class="cls-9" d="m430.69,61.58c1.11.23,9.11.31,10.18.11"/><path class="cls-11" d="m191.58,8.3c1.49-.07,2.82-.12,3.3-.14,21.25-.85,100.04-2.62,150.51,20.27,22.59,10.25,35.17,25.05,35.17,45.86s-12.75,36.35-35.65,46.55c-42.49,18.91-106.33,19.28-153.34,19.43-33.89.11-34.58,2.1-40.63,1.12-27.41-4.42.73,91.32-31.02,77.2-23.38-10.4-56.05-12.05-56.73-20.18-.58-6.99-7.98-152.65,9.75-165.8C108.01,6.57,113.59,11.35,127.9,9.79c5.03-.55,31.36-.04,63.67-1.48h0Z"/><path class="cls-19" d="m334.42,74.27c0,11.46-20.66,20.07-32.97,24.2-39.49,13.2-82.85,13.13-104.38,14.06-38.13,1.65-78.01,33.23-92.2,36.74-7.55,1.87-21.45-11.31-21.27-26.32.19-15.56,6.19-56.24,11.52-62.29,12.37-14.01,83.23-24.55,101.95-24.64,23.2-.11,65.63,1.11,104.38,14.06,12.31,4.11,32.97,12.74,32.97,24.2h0Z"/><polygon class="cls-18" points="78.18 281.25 42.36 290.6 12.88 283.43 9.14 273.11 20.64 248.58 37.09 232.78 78.18 281.25"/><polygon class="cls-18" points="79.19 165.42 43.35 156.07 13.87 163.23 10.13 173.55 21.64 198.08 38.08 213.89 79.19 165.42"/><path class="cls-18" d="m90.53,161.51c1.02-.11,22.78-2.31,39.2,10.84,16.01,12.81,16.35,31.72,16.7,49.93.31,16.54.57,30.41-10.53,43.03-10.35,11.78-28.5,20.07-45.37,17.74-8.71-1.21-17.89-5.19-27.95-10.84-8.59-4.82-12.82-6.79-17.97-12.64-10.53-11.97-9.91-27.32-9.98-37.28-.07-9.97-.18-24.3,10.34-36.78,6.32-7.5,15.79-11.1,22.87-14.78,7.28-3.79,12.92-8.08,22.68-9.19h0Z"/><path class="cls-14" d="m36.36,243.86c-9.43,10.89-19.14,25.07-14.79,29.15,4.9,4.6,13.06,5.58,23.04,4.6,6.72-.67,15.24-2.96,18.51-5.25-4.17-2.79-11.61-5.09-17.79-12.32-5.72-6.69-8.66-13.04-8.99-16.18h.02Z"/><path class="cls-13" d="m34.82,230.32c1.52-.15,19.79-.98,19.87-6.65.09-6.65-18.6-6.47-20.06-6.65"/><path class="cls-16" d="m39.26,243.86c3.17-.08,9.34-.9,8.26-5.01-.9-1.81-6.36-1.9-10.53-.82"/><path class="cls-15" d="m36.86,201.12c-9.43-10.89-19.14-25.07-14.79-29.15,4.9-4.6,13.06-5.58,23.04-4.6,6.72.67,15.24,2.96,18.51,5.25-4.17,2.79-11.61,5.09-17.79,12.32-5.72,6.69-8.66,13.04-8.99,16.18h.02Z"/><path class="cls-17" d="m39.29,201.06c3.17.08,9.34.9,8.26,5.01-.9,1.81-6.36,1.9-10.53.82"/><path class="cls-8" d="m68.84,278.49c2.07.8,33.66,12.51,56.98-3.28,19.09-12.93,19.18-35.18,19.23-51.07.05-14.55.18-45.88-24.68-58.3-16.23-8.11-34.73-3.97-44.73-.61-3.37,1.13-5.77,2.18-6.81,2.63"/><path class="cls-8" d="m33.29,212.83c-20.19-20.39-28.69-39.19-21.78-47.95,2.97-3.76,8.12-4.83,14.52-6.08,20.2-3.93,38.46,1.48,49.63,6.12"/><path class="cls-8" d="m33.29,234.06c-20.19,20.39-28.69,39.19-21.78,47.95,2.97,3.76,8.12,4.83,14.52,6.08,20.2,3.93,38.46-1.48,49.63-6.12"/><path class="cls-8" d="m37.09,241.77c-1.92-3.63-5.06-10.8-4.9-20.2.15-8.64,3.01-15.24,4.9-18.8"/><ellipse class="cls-5" cx="79.55" cy="222.27" rx="1.27" ry="4.11"/><path class="cls-8" d="m82.77,222.27c9.63,0,16.02,2.98,16.38,6.16.28,2.58-3.47,4.97-4.55,5.62"/><path class="cls-8" d="m83.3,222.3c9.63,0,16.02-2.98,16.38-6.16.28-2.58-3.47-4.97-4.55-5.62"/><line class="cls-7" x1="78.18" y1="255.2" x2="87.21" y2="255.2"/><line class="cls-7" x1="78.2" y1="192.95" x2="87.23" y2="192.95"/><path class="cls-10" d="m104.95,291.73c-3.01-2.44-8.08-7.26-9.25-13.86-1.36-7.62,3.21-13.49,5.65-16.14"/><path class="cls-10" d="m119.81,292.26c-4.02-2.04-11.09-6.24-15.21-12.9-4.76-7.7-3.01-14.54-1.84-17.68"/><path class="cls-10" d="m137.39,291.24c-4.78-1.59-13.44-5-20.21-11.34-7.82-7.33-8.88-14.6-9.02-17.98"/><path class="cls-10" d="m100.98,155.07c-3.01,2.44-8.08,7.26-9.25,13.87-1.36,7.63,3.21,13.5,5.65,16.15"/><path class="cls-10" d="m115.84,154.53c-4.02,2.04-11.09,6.24-15.21,12.91-4.76,7.7-3.01,14.55-1.84,17.69"/><path class="cls-10" d="m133.43,155.56c-4.78,1.59-13.44,5-20.21,11.35-7.82,7.33-8.88,14.61-9.02,18"/><path class="cls-18" d="m129.68,135.23c7.33,1.11,13.07,5.23,12.79,5.47,9.5-1.92,17.74-3.46,24.5-4.76,2.69-.52,6.95-1.35,13.89-.8,3.33.26,6.26.76,8.21,1.14,5.35,1.47,9.77,1.22,10.83-.39.82-1.25-.6-2.92-1.1-3.47,5.7.45,8.27-1.62,6.6-4.1-1.14-1.7-4.23-3.5-7.8-4.69,0-.3.02-2.49-3.18-4.43-3.63-2.19-10.26-3.41-14.36-1.89-1.18-.75-3.78-2.27-6.75-2.87-4.65-.93-8.83.66-8.47,4.35-.97.56-2.56,1.36-4.94,2.04-3.44,1-6.47,3.74-8.06,3.87-5.94.48-11.52,5.26-22.16,10.53h0Z"/><path class="cls-12" d="m142.47,140.71l18.97-3.7,8.69-1.61c2.1-.25,5.01-.42,8.74-.26,3.91.18,7.48.67,10.21,1.15,4.39,1.27,8.37,1.24,9.97-.04,1.67-1.33.04-3.47-.24-3.82,4.23.6,7.12-.49,6.91-2.56-.21-2.13-3.64-4.78-8.11-6.22,0-.18-.27-2.75-4.29-4.89-3.95-2.11-10-2.97-13.25-1.44-.8-.46-4.25-2.39-8.03-2.9-4.64-.63-8.07,1.09-7.21,4.39-.9.68-2.32,1.49-4.5,2.13-1.96.58-6.42,2.33-8.05,2.47-10.64,4.39-13.29,7.02-21.27,13.16"/><path class="cls-18" d="m64.94,105.4c-1.63-8.15,19.67-25.8,20.42-25.44-10.13-11.08-12.41-15.36-19.47-23.25-2.8-3.12-7.28-8.1-10.02-15.9-1.32-3.75-1.84-6.99-2.07-9.15.38-5.85-2.79-10.9-7.28-12.36-3.46-1.12-6.62.24-7.63.72-2.27-6.4-8.69-9.64-13.62-8.12-3.39,1.04-5.89,4.26-6.64,8.14-.72-.06-5.95-.39-8.7,2.95-3.11,3.78-2.14,11.14,3.86,16.02-1.11,1.22-3.21,3.94-2.89,7.24.5,5.14,6.72,10.12,15.33,10.29,1.91,1.18,4.73,3.11,7.76,5.92,4.39,4.05,6.93,7.83,8.15,9.65,4.61,6.83,12.59,18.34,22.78,33.29h.02Z"/><ellipse class="cls-3" cx="21.73" cy="46.52" rx="3.67" ry="5.75" transform="translate(-29.02 38.71) rotate(-56.22)"/><ellipse class="cls-4" cx="19.01" cy="30.55" rx="4.35" ry="6.21" transform="translate(-15.54 20.5) rotate(-41.89)"/><ellipse class="cls-2" cx="29.54" cy="22.7" rx="4.35" ry="6.2" transform="translate(-7.71 22.27) rotate(-36.88)"/><ellipse class="cls-1" cx="44.35" cy="29.05" rx="3.73" ry="5.66" transform="translate(-5.75 11.69) rotate(-14.12)"/><path class="cls-6" d="m37.66,34.73c-.08-.12-.16-.25-.26-.37-1.53-1.94-4.87-1.94-7.44,0-2.57,1.95-3.4,5.09-1.87,7.03.1.11.19.23.3.33-.57,1.24-.43,2.75.5,3.91,1.33,1.68,3.77,2,5.45.73.48-.36.84-.82,1.09-1.32.67-.2,1.41-.58,2.12-1.11s1.27-1.14,1.64-1.73c.56-.11,1.1-.34,1.57-.7,1.68-1.27,1.98-3.67.65-5.33-.92-1.17-2.38-1.68-3.75-1.45h0Z"/><path class="cls-12" d="m84.92,80.4l-13.27-17.24-8.9-10.11c-1.81-2.42-3.94-5.75-5.73-9.97-1.88-4.41-2.77-8.4-3.24-11.42.47-4.79-1.93-9.32-5.93-11.33-4.17-2.1-8.29-.58-8.97-.31-1.05-4.71-5.32-8.16-10.15-8.24-4.97-.09-9.28,3.41-10.1,8.26-.41,0-6.39-.11-9.15,4.13-2.71,4.17-1.25,10.9,4.31,14.83-.63.83-3.22,4.46-2.22,8.68,1.21,5.17,7.3,9.33,14.67,8.85,2.14,1.13,4.91,2.86,7.71,5.44,2.52,2.31,4.33,4.61,5.58,6.47,8.47,12.32,16.95,24.63,25.41,36.95"/></svg>