<?xml version="1.0" encoding="UTF-8"?><svg id="Calque_1" xmlns="http://www.w3.org/2000/svg" xmlns:xlink="http://www.w3.org/1999/xlink" viewBox="0 0 150 600"><defs><style>.cls-1{fill:#1a1a1a;}.cls-1,.cls-2{stroke-width:10px;}.cls-1,.cls-2,.cls-3,.cls-4,.cls-5,.cls-6,.cls-7{stroke:#1a1a1a;}.cls-1,.cls-2,.cls-3,.cls-4,.cls-5,.cls-7{stroke-linecap:round;}.cls-1,.cls-2,.cls-3,.cls-4,.cls-7{stroke-linejoin:round;}.cls-8{fill:url(#Dégradé_sans_nom_6);}.cls-8,.cls-9,.cls-10,.cls-11,.cls-12,.cls-13,.cls-14,.cls-15{stroke-width:0px;}.cls-9{fill:url(#Dégradé_sans_nom_7);}.cls-10{fill:url(#Dégradé_sans_nom_2);}.cls-11{fill:url(#Dégradé_sans_nom_3);}.cls-2,.cls-3,.cls-5{fill:none;}.cls-3{stroke-width:8px;}.cls-12{fill:url(#Dégradé_sans_nom_7-3);}.cls-13{fill:url(#Dégradé_sans_nom_7-2);}.cls-14{fill:url(#Dégradé_sans_nom_6-2);}.cls-4{stroke-width:3px;}.cls-4,.cls-6,.cls-7,.cls-15{fill:#61cafa;}.cls-5{stroke-width:5px;}.cls-5,.cls-6{stroke-miterlimit:10;}.cls-6,.cls-7{stroke-width:6px;}</style><radialGradient id="Dégradé_sans_nom_3" cx="-386.54" cy="50.69" fx="-386.54" fy="50.69" r="84.15" gradientTransform="translate(282.31 429.69) scale(.53 -1.93)" gradientUnits="userSpaceOnUse"><stop offset="0" stop-color="#829888"/><stop offset=".28" stop-color="#7f9486"/><stop offset=".5" stop-color="#768a80"/><stop offset=".71" stop-color="#687a76"/><stop offset=".87" stop-color="#58676b"/></radialGradient><radialGradient id="Dégradé_sans_nom_2" cx="-1832.21" cy="1394.82" fx="-1832.21" fy="1394.82" r="117.2" gradientTransform="translate(650.8 297.78) rotate(54.05) scale(.43 .3) skewX(37.3)" gradientUnits="userSpaceOnUse"><stop offset="0" stop-color="#0abfd6"/><stop offset=".18" stop-color="#0abbd2"/><stop offset=".35" stop-color="#0db0c6"/><stop offset=".53" stop-color="#129db2"/><stop offset=".7" stop-color="#188396"/><stop offset=".87" stop-color="#216272"/><stop offset=".93" stop-color="#245766"/></radialGradient><linearGradient id="Dégradé_sans_nom_6" x1="39.4" y1="543.95" x2="22.31" y2="572.61" gradientTransform="translate(0 602) scale(1 -1)" gradientUnits="userSpaceOnUse"><stop offset="0" stop-color="#829888"/><stop offset=".85" stop-color="#58676b"/></linearGradient><linearGradient id="Dégradé_sans_nom_7" x1="74.41" y1="537.24" x2="74.74" y2="560.7" gradientTransform="translate(0 602) scale(1 -1)" gradientUnits="userSpaceOnUse"><stop offset="0" stop-color="#829888"/><stop offset=".4" stop-color="#73877e"/><stop offset="1" stop-color="#58676b"/></linearGradient><linearGradient id="Dégradé_sans_nom_7-2" x1="59.23" y1="545.72" x2="57.83" y2="554.77" xlink:href="#Dégradé_sans_nom_7"/><linearGradient id="Dégradé_sans_nom_6-2" x1="1566.73" y1="543.3" x2="1549.65" y2="571.96" gradientTransform="translate(1679.1 602) rotate(-180)" xlink:href="#Dégradé_sans_nom_6"/><linearGradient id="Dégradé_sans_nom_7-3" x1="1709.88" y1="545.67" x2="1708.49" y2="554.72" gradientTransform="translate(1802.48 602) rotate(-180)" xlink:href="#Dégradé_sans_nom_7"/></defs><rect class="cls-6" x="47.41" y="479.85" width="20.55" height="103.76"/><path class="cls-6" d="m71.76,578.21c-.32,7.5-8.63,12.26-14.8,11.89-5.32-.32-13.05-4.68-13.36-11.89-.32-7.35,7.08-17.31,14.08-17.3,6.97,0,14.4,9.91,14.08,17.3h0Z"/><path class="cls-4" d="m49.09,577.67c.2.44.37,9.43.24,9.81"/><path class="cls-4" d="m66.75,577.89c-.2.44-.37,9.43-.24,9.81"/><path class="cls-4" d="m60.06,578.74c.22,1.11.3,9.13.11,10.2"/><path class="cls-4" d="m55.4,578.94c-.22,1.11-.3,9.13-.11,10.2"/><rect class="cls-6" x="83.51" y="480.24" width="20.55" height="103.76"/><path class="cls-6" d="m107.87,578.59c-.32,7.5-8.63,12.26-14.8,11.89-5.32-.32-13.05-4.68-13.36-11.89-.32-7.35,7.08-17.31,14.08-17.3,6.97,0,14.4,9.91,14.08,17.3h0Z"/><path class="cls-4" d="m85.19,578.06c.2.44.37,9.43.24,9.81"/><path class="cls-4" d="m102.86,578.28c-.2.44-.37,9.43-.24,9.81"/><path class="cls-4" d="m96.17,579.13c.22,1.11.3,9.13.11,10.2"/><path class="cls-4" d="m91.5,579.33c-.22,1.11-.3,9.13-.11,10.2"/><path class="cls-6" d="m138.84,302.85c.07,1.49.12,2.83.14,3.3.82,21.3,2.54,100.27-19.61,150.86-9.92,22.65-24.25,35.25-44.38,35.25s-35.18-12.78-45.05-35.73c-18.31-42.59-18.66-106.58-18.81-153.69-.1-33.97,2.28-50.74,3.22-56.79,4.28-27.48,11.01-38.92,24.68-70.73,10.07-23.44,28.53,4.07,36.39,3.4,6.77-.58,32.26-21.24,37.66-6.12,14.68,41.16,19.95,53.68,21.46,68.02.53,5.04,2.9,29.84,4.3,62.23h0Z"/><path class="cls-11" d="m74.99,446.03c-11.09,0-19.43-20.71-23.42-33.05-12.78-39.59-13.7-83.03-13.61-104.63.08-18.2.37-81.39,13.95-93.79,5.61-5.13,8.02,3.43,22.53,3.61,15.06.19,17.76-8.95,23.61-3.61,13.56,12.4,13.87,75.02,13.95,93.79.11,23.25-1.07,65.79-13.61,104.63-3.98,12.34-12.33,33.05-23.42,33.05h0Z"/><path class="cls-10" d="m112.04,217.57c1.43,10.51,20.35,28.92,20.67,28.51-2.48,13.62-4.46,25.43-6.15,35.14-.67,3.85-1.74,9.96-1.04,19.92.34,4.78.98,8.97,1.47,11.77,1.89,7.68,1.57,14-.51,15.53-1.61,1.18-3.77-.86-4.47-1.58.58,8.17-2.09,11.86-5.28,9.47-2.19-1.64-4.52-6.06-6.05-11.18-.38.02-3.21.03-5.71-4.57-2.83-5.19-4.4-14.72-2.45-20.58-.97-1.69-2.93-5.42-3.69-9.69-1.21-6.66.84-12.65,5.61-12.15.72-1.39,1.75-3.67,2.64-7.08,1.29-4.93,1.62-9.65,1.78-11.92.62-8.52,1.77-22.89,3.17-41.57h0Z"/><path class="cls-7" d="m132.71,246.07l-4.78,27.2-2.07,12.45c-.31,3.01-.54,7.18-.34,12.54.22,5.61.86,10.72,1.48,14.64,1.64,6.3,1.6,12-.06,14.29-1.72,2.39-4.47.06-4.92-.35.76,6.06-.63,10.21-3.3,9.91-2.75-.3-6.16-5.22-8.02-11.63-.22-.02-3.54-.4-6.3-6.16-2.71-5.66-3.84-14.34-1.85-18.99-.59-1.15-3.07-6.09-3.74-11.51-.81-6.65,1.4-11.57,5.65-10.33.87-1.31,1.92-3.33,2.75-6.46.74-2.81,1.09-5.66,1.26-8,1.2-15.37,2.39-30.75,3.58-46.12"/><polygon class="cls-15" points="18.3 96.57 9.14 51.39 16.16 14.21 26.27 9.5 50.32 24.01 65.8 44.73 18.3 96.57"/><polygon class="cls-15" points="131.83 97.82 140.99 52.65 133.97 15.47 123.85 10.75 99.81 25.26 84.32 45.99 131.83 97.82"/><path class="cls-15" d="m135.67,112.13c.11,1.28,2.26,28.72-10.62,49.43-12.56,20.18-31.09,20.63-48.94,21.05-16.21.39-29.8.71-42.17-13.27-11.55-13.06-19.67-35.94-17.39-57.21,1.18-10.98,5.09-22.56,10.62-35.24,4.72-10.83,6.66-16.16,12.4-22.65,11.73-13.28,26.78-12.49,36.54-12.59,9.77-.09,23.82-.22,36.06,13.04,7.35,7.98,10.88,19.91,14.48,28.84,3.71,9.17,7.92,16.3,9.02,28.61h0Z"/><path class="cls-8" d="m54.94,43.82c-10.67-11.9-24.58-24.13-28.57-18.65-4.51,6.18-5.48,16.48-4.51,29.06.65,8.48,2.9,19.22,5.15,23.34,2.73-5.26,4.99-14.65,12.07-22.42,6.56-7.21,12.78-10.92,15.85-11.33Z"/><path class="cls-9" d="m68.22,41.87c.15,1.91.97,24.96,6.52,25.06,6.52.12,6.34-23.45,6.52-25.28"/><path class="cls-13" d="m54.94,47.48c.08,4.01.88,11.79,4.91,10.41,1.77-1.15,1.87-8.02.81-13.27"/><path class="cls-14" d="m96.83,44.47c10.67-11.9,24.58-24.13,28.57-18.65,4.51,6.18,5.48,16.48,4.51,29.06-.65,8.48-2.9,19.22-5.15,23.34-2.73-5.26-4.99-14.65-12.07-22.42-6.56-7.21-12.78-10.92-15.85-11.33Z"/><path class="cls-12" d="m96.89,47.52c-.08,4.01-.88,11.79-4.91,10.41-1.77-1.15-1.87-8.02-.81-13.27"/><path class="cls-3" d="m21,84.78c-.78,2.6-12.27,42.45,3.22,71.85,12.68,24.08,34.48,24.18,50.06,24.25,14.26.07,44.97.22,57.14-31.12,7.95-20.46,3.9-43.79.6-56.41-1.11-4.25-2.13-7.28-2.58-8.58"/><path class="cls-3" d="m85.36,39.95C105.34,14.5,123.77,3.77,132.36,12.49c3.69,3.75,4.74,10.24,5.95,18.31,3.85,25.48-1.45,48.49-6,62.59"/><path class="cls-3" d="m64.56,39.95C44.58,14.5,26.15,3.77,17.55,12.49c-3.69,3.75-4.74,10.24-5.95,18.31-3.85,25.48,1.45,48.49,6,62.59"/><path class="cls-3" d="m56.99,44.73c3.56-2.43,10.59-6.38,19.8-6.18,8.47.19,14.93,3.8,18.43,6.18"/><ellipse class="cls-1" cx="76.1" cy="98.29" rx="4.02" ry="1.6"/><path class="cls-3" d="m76.1,102.35c0,12.14-2.93,20.21-6.04,20.66-2.53.36-4.87-4.39-5.51-5.73"/><path class="cls-3" d="m76.07,103.01c0,12.14,2.93,20.21,6.04,20.66,2.53.36,4.87-4.39,5.51-5.73"/><line class="cls-2" x1="43.83" y1="96.57" x2="43.83" y2="107.95"/><line class="cls-2" x1="104.85" y1="96.59" x2="104.85" y2="107.98"/><path class="cls-5" d="m8.03,130.32c2.39-3.8,7.12-10.19,13.58-11.67,7.47-1.71,13.23,4.04,15.82,7.12"/><path class="cls-5" d="m7.5,149.06c2-5.06,6.11-13.97,12.64-19.17,7.55-6.01,14.25-3.79,17.32-2.32"/><path class="cls-5" d="m8.51,171.23c1.55-6.02,4.9-16.94,11.11-25.48,7.18-9.86,14.31-11.2,17.63-11.37"/><path class="cls-5" d="m141.97,125.31c-2.39-3.8-7.12-10.19-13.6-11.67-7.48-1.71-13.24,4.04-15.83,7.12"/><path class="cls-5" d="m142.5,144.05c-2-5.06-6.11-13.97-12.66-19.17-7.56-6.01-14.26-3.79-17.34-2.32"/><path class="cls-5" d="m141.49,166.22c-1.56-6.02-4.9-16.94-11.12-25.48-7.18-9.86-14.32-11.2-17.64-11.37"/><path class="cls-7" d="m18.33,240.98c2.48,13.62,4.46,25.43,6.15,35.14.67,3.85,1.74,9.96,1.04,19.92-.34,4.78-.98,8.97-1.47,11.77-1.89,7.68-1.57,14,.51,15.53,1.61,1.18,3.77-.86,4.47-1.58-.58,8.17,2.09,11.86,5.28,9.47,2.19-1.64,4.52-6.06,6.05-11.18.38.02,3.21.03,5.71-4.57,2.83-5.19,4.4-14.72,2.45-20.58.97-1.69,2.93-5.42,3.69-9.69,1.21-6.66-.84-12.65-5.61-12.15-.72-1.39-1.75-3.67-2.64-7.08-1.29-4.93-1.62-9.65-1.78-11.92-.62-8.52-1.77-22.89-3.17-41.57"/></svg>