<?xml version="1.0" encoding="UTF-8"?><svg id="Calque_1" xmlns="http://www.w3.org/2000/svg" xmlns:xlink="http://www.w3.org/1999/xlink" viewBox="0 0 450 300"><defs><style>.cls-1{fill:#1a1a1a;}.cls-1,.cls-2{stroke-width:10px;}.cls-1,.cls-2,.cls-3,.cls-4,.cls-5{stroke-linejoin:round;}.cls-1,.cls-2,.cls-3,.cls-4,.cls-5,.cls-6{stroke-linecap:round;}.cls-1,.cls-2,.cls-3,.cls-4,.cls-5,.cls-6,.cls-7{stroke:#1a1a1a;}.cls-8{fill:url(#Dégradé_sans_nom_6);}.cls-8,.cls-9,.cls-10,.cls-11,.cls-12,.cls-13,.cls-14{stroke-width:0px;}.cls-9{fill:url(#Dégradé_sans_nom_5);}.cls-2,.cls-3,.cls-6{fill:none;}.cls-3{stroke-width:8px;}.cls-10{fill:url(#Dégradé_sans_nom_5-2);}.cls-11{fill:url(#Dégradé_sans_nom_5-3);}.cls-12{fill:url(#Dégradé_sans_nom_6-2);}.cls-13{fill:url(#Dégradé_sans_nom_6-3);}.cls-4,.cls-5,.cls-7,.cls-14{fill:#d72e4a;}.cls-4,.cls-7{stroke-width:6px;}.cls-5{stroke-width:3px;}.cls-6{stroke-width:5px;}.cls-6,.cls-7{stroke-miterlimit:10;}</style><radialGradient id="Dégradé_sans_nom_5" cx="-482.81" cy="-127.79" fx="-482.81" fy="-127.79" r="151.05" gradientTransform="translate(17.63 -103.43) rotate(-90) scale(.54 -1.9)" gradientUnits="userSpaceOnUse"><stop offset="0" stop-color="#ef5b66"/><stop offset=".28" stop-color="#ec5e68"/><stop offset=".5" stop-color="#e66870"/><stop offset=".71" stop-color="#da787d"/><stop offset=".87" stop-color="#ce8c8d"/></radialGradient><radialGradient id="Dégradé_sans_nom_5-2" cx="119.47" cy="248.99" fx="119.47" fy="248.99" r="25.52" gradientTransform="translate(270.08 219.73) rotate(-90) scale(.86 -.88)" xlink:href="#Dégradé_sans_nom_5"/><linearGradient id="Dégradé_sans_nom_6" x1="167.32" y1="250.71" x2="180.57" y2="250.71" gradientTransform="translate(305.78 253.5) rotate(-90) scale(1 -1)" gradientUnits="userSpaceOnUse"><stop offset="0" stop-color="#ef5b66"/><stop offset=".4" stop-color="#e36b73"/><stop offset="1" stop-color="#ce8c8d"/></linearGradient><linearGradient id="Dégradé_sans_nom_6-2" x1="158.16" y1="248.73" x2="156.78" y2="257.66" xlink:href="#Dégradé_sans_nom_6"/><radialGradient id="Dégradé_sans_nom_5-3" cx="1770.93" cy="248.26" fx="1770.93" fy="248.26" r="25.52" gradientTransform="translate(270.08 -1487.74) rotate(90) scale(.86 .88)" xlink:href="#Dégradé_sans_nom_5"/><linearGradient id="Dégradé_sans_nom_6-3" x1="1910.35" y1="248.68" x2="1908.97" y2="257.62" gradientTransform="translate(305.78 -1848.98) rotate(90)" xlink:href="#Dégradé_sans_nom_6"/></defs><rect class="cls-7" x="329.85" y="238.3" width="102.52" height="20.88"/><path class="cls-7" d="m427.03,234.43c7.41.33,12.11,8.77,11.74,15.04-.32,5.4-4.63,13.26-11.74,13.58-7.26.33-17.1-7.2-17.09-14.3,0-7.08,9.79-14.63,17.09-14.3h0Z"/><path class="cls-5" d="m426.49,257.46c.43-.2,9.31-.38,9.69-.24"/><path class="cls-5" d="m426.71,239.52c.43.2,9.31.38,9.69.24"/><path class="cls-5" d="m427.56,246.32c1.1-.22,9.02-.3,10.08-.11"/><path class="cls-5" d="m427.76,251.05c1.1.22,9.02.3,10.08.11"/><rect class="cls-7" x="330.24" y="201.61" width="102.52" height="20.88"/><path class="cls-7" d="m427.41,197.74c7.41.33,12.11,8.77,11.74,15.04-.32,5.4-4.63,13.26-11.74,13.58-7.26.33-17.1-7.2-17.09-14.3,0-7.08,9.79-14.63,17.09-14.3h0Z"/><path class="cls-5" d="m426.88,220.78c.43-.2,9.31-.38,9.69-.24"/><path class="cls-5" d="m427.1,202.82c.43.2,9.31.38,9.69.24"/><path class="cls-5" d="m427.95,209.63c1.1-.22,9.02-.3,10.08-.11"/><path class="cls-5" d="m428.14,214.37c1.1.22,9.02.3,10.08.11"/><path class="cls-7" d="m291.86,32.2c1.76,3.45-1.35,124.14-.88,124.24,48.58,9.89,73.35-7.33,74.61,41.41.62,24.18-.47,19.34.88,37.1,1.59,20.99-7.63,52.98-32.48,52.63-60.57-.86-115.25,1.35-137.81,1.73-33.56.55-25.75-82.05-25.46-88,1.76-35.37,35.38-71.58,3.95-85.46-23.16-10.23,4.02-28.99,3.36-36.98-.57-6.88-20.99-32.78-6.05-38.27,40.67-14.92,53.34-18.52,67.2-21.81,5.27-1.25,38.75-13.93,52.67,13.42h0Z"/><path class="cls-9" d="m321.7,234.08c-.88,12.94-36.73,33.17-54.42,34.51-57.06,4.31-51.03-2.16-62.32-19.84-19.78-30.97-1.76-132-.88-142.35.64-7.55,2.88-14,4.39-26.75,1.8-15.2-5.12-28.39.88-33.65,19.66-17.21,26.51,108.18,35.99,122.51,11.41,17.25,21.94,11.22,60.57,25.88,12.01,4.56,16.48,29.61,15.8,39.69Z"/><path class="cls-4" d="m259.66,53.55c1.84,13.35,3.61,24.86,5,34.34.55,3.75,1.42,9.73,5.24,18.67,1.83,4.29,3.78,7.95,5.14,10.37,4.27,6.45,5.94,12.39,4.37,14.47-1.21,1.6-3.97.42-4.88,0,3.12,7.34,1.68,11.6-2.2,10.42-2.67-.8-6.33-4.12-9.44-8.34-.38.14-3.13,1.06-7.03-2.36-4.4-3.87-8.94-12.13-8.86-18.17-1.48-1.24-4.57-4.04-6.66-7.73-3.27-5.75-3.14-11.92,1.69-13,.27-1.52.56-3.95.37-7.38-.28-4.95-1.44-9.41-1.99-11.55-2.07-8.05-5.45-21.66-9.95-39.3"/><polygon class="cls-14" points="96.85 136.9 52.22 146.22 15.48 139.08 10.82 128.8 25.16 104.38 45.63 88.63 96.85 136.9"/><polygon class="cls-14" points="98.09 21.54 53.45 12.23 16.72 19.37 12.07 29.65 26.39 54.08 46.88 69.82 98.09 21.54"/><path class="cls-14" d="m112.23,17.64c1.26-.11,28.38-2.29,48.84,10.79,19.94,12.76,20.38,31.59,20.8,49.73.39,16.47.7,30.28-13.11,42.85-12.9,11.73-35.51,19.99-56.53,17.67-10.85-1.2-22.29-5.18-34.82-10.79-10.7-4.8-15.97-6.76-22.38-12.6-13.12-11.91-12.34-27.21-12.44-37.13-.09-9.93-.22-24.2,12.89-36.64,7.88-7.47,19.67-11.05,28.49-14.72,9.06-3.77,16.11-8.05,28.26-9.16Z"/><path class="cls-10" d="m44.73,99.67c-11.75,10.84-23.84,24.98-18.42,29.03,6.11,4.58,16.28,5.56,28.71,4.58,8.37-.66,19-2.94,23.06-5.24-5.2-2.78-14.47-5.07-22.16-12.27-7.13-6.67-10.79-12.98-11.19-16.11h0Z"/><path class="cls-8" d="m42.81,86.18c1.89-.16,24.67-.98,24.76-6.63.11-6.63-23.17-6.44-24.98-6.63"/><path class="cls-12" d="m48.36,99.67c3.96-.08,11.65-.9,10.29-4.99-1.13-1.8-7.93-1.9-13.11-.82"/><path class="cls-11" d="m45.37,57.11c-11.75-10.84-23.84-24.98-18.42-29.03,6.11-4.58,16.28-5.56,28.71-4.58,8.37.66,19,2.94,23.06,5.24-5.2,2.78-14.47,5.07-22.16,12.27-7.13,6.67-10.79,12.98-11.19,16.11h0Z"/><path class="cls-13" d="m48.4,57.05c3.96.08,11.65.9,10.29,4.99-1.13,1.8-7.93,1.9-13.11.82"/><path class="cls-3" d="m85.2,134.16c2.57.79,41.94,12.47,70.99-3.27,23.79-12.88,23.89-35.04,23.96-50.87.07-14.49.22-45.69-30.75-58.06-20.22-8.08-43.27-3.96-55.74-.61-4.2,1.13-7.19,2.17-8.48,2.62"/><path class="cls-3" d="m40.91,68.76C15.76,48.46,5.16,29.73,13.78,21c3.7-3.75,10.12-4.81,18.09-6.05,25.17-3.91,47.91,1.48,61.84,6.1"/><path class="cls-3" d="m40.91,89.9c-25.15,20.3-35.75,39.03-27.13,47.76,3.7,3.75,10.12,4.81,18.09,6.05,25.17,3.91,47.91-1.48,61.84-6.1"/><path class="cls-3" d="m45.63,97.59c-2.4-3.61-6.3-10.76-6.11-20.12.18-8.6,3.76-15.18,6.11-18.73"/><ellipse class="cls-1" cx="98.55" cy="78.17" rx="1.58" ry="4.09"/><path class="cls-3" d="m102.57,78.17c11.99,0,19.97,2.98,20.41,6.13.35,2.57-4.34,4.94-5.66,5.6"/><path class="cls-3" d="m103.22,78.2c11.99,0,19.97-2.98,20.41-6.13.35-2.57-4.34-4.94-5.66-5.6"/><line class="cls-2" x1="96.85" y1="110.96" x2="108.1" y2="110.96"/><line class="cls-2" x1="96.88" y1="48.95" x2="108.12" y2="48.95"/><path class="cls-6" d="m130.2,147.34c-3.76-2.42-10.07-7.23-11.53-13.8-1.69-7.59,3.99-13.44,7.04-16.07"/><path class="cls-6" d="m148.71,147.88c-5-2.04-13.81-6.21-18.94-12.85-5.93-7.67-3.75-14.48-2.29-17.6"/><path class="cls-6" d="m170.62,146.86c-5.95-1.58-16.74-4.98-25.17-11.29-9.74-7.3-11.07-14.54-11.24-17.91"/><path class="cls-6" d="m125.26,11.23c-3.76,2.43-10.07,7.24-11.53,13.82-1.69,7.6,3.99,13.45,7.04,16.09"/><path class="cls-6" d="m143.77,10.7c-5,2.04-13.81,6.21-18.94,12.86-5.93,7.68-3.75,14.49-2.29,17.62"/><path class="cls-6" d="m165.68,11.73c-5.95,1.59-16.74,4.98-25.17,11.3-9.74,7.3-11.07,14.55-11.24,17.93"/><path class="cls-4" d="m191.29,154.36c10.06,9.15,18.64,17.17,25.74,23.73,2.81,2.61,7.29,6.73,12.55,14.93,2.53,3.93,4.45,7.61,5.69,10.09,2.93,7.14,6.91,11.89,9.54,11.83,2.03-.05,2.63-2.95,2.79-3.93,4.32,6.73,8.7,8,9.95,4.21.86-2.61.2-7.46-1.54-12.39.33-.22,2.69-1.92,2.06-7.01-.69-5.76-4.98-14.16-10.05-17.56-.18-1.91-.75-6-2.62-9.8-2.91-5.94-8.13-9.38-11.81-6.11-1.42-.65-3.61-1.81-6.36-3.93-3.97-3.07-7.01-6.56-8.48-8.23-5.51-6.28-14.91-16.81-27.03-30.56"/></svg>