<?xml version="1.0" encoding="UTF-8"?><svg id="Calque_1" xmlns="http://www.w3.org/2000/svg" xmlns:xlink="http://www.w3.org/1999/xlink" viewBox="0 0 450 300"><defs><style>.cls-1{fill:#1a1a1a;}.cls-1,.cls-2{stroke-width:10px;}.cls-1,.cls-2,.cls-3,.cls-4,.cls-5,.cls-6{stroke:#1a1a1a;}.cls-1,.cls-2,.cls-3,.cls-5{stroke-linejoin:round;}.cls-1,.cls-2,.cls-3,.cls-5,.cls-7,.cls-6{stroke-linecap:round;}.cls-8{fill:url(#Dégradé_sans_nom_6);}.cls-8,.cls-9,.cls-10,.cls-11,.cls-12,.cls-13,.cls-14{stroke-width:0px;}.cls-9{fill:url(#Dégradé_sans_nom_5);}.cls-10{fill:url(#Dégradé_sans_nom_2);}.cls-2,.cls-3,.cls-7,.cls-6{fill:none;}.cls-3{stroke-width:8px;}.cls-11{fill:url(#Dégradé_sans_nom_5-2);}.cls-12{fill:url(#Dégradé_sans_nom_6-2);}.cls-13{fill:url(#Dégradé_sans_nom_6-3);}.cls-4{stroke-width:6px;}.cls-4,.cls-5,.cls-14{fill:#ef8a33;}.cls-4,.cls-7,.cls-6{stroke-miterlimit:10;}.cls-5{stroke-width:3px;}.cls-7{stroke:#1d1d1b;}.cls-7,.cls-6{stroke-width:5px;}</style><radialGradient id="Dégradé_sans_nom_2" cx="1236.91" cy="26.83" fx="1236.91" fy="26.83" r="119.1" gradientTransform="translate(357.46 814.28) rotate(-90) scale(.56 -1.93)" gradientUnits="userSpaceOnUse"><stop offset="0" stop-color="#ce6f33"/><stop offset=".24" stop-color="#ca6e33"/><stop offset=".42" stop-color="#c06b35"/><stop offset=".59" stop-color="#af6739"/><stop offset=".75" stop-color="#98613d"/><stop offset=".87" stop-color="#835c42"/></radialGradient><linearGradient id="Dégradé_sans_nom_5" x1="1164.04" y1="669.8" x2="1146.92" y2="698.51" gradientTransform="translate(727.21 1277.42) rotate(-90) scale(1 -1)" gradientUnits="userSpaceOnUse"><stop offset="0" stop-color="#ce6f33"/><stop offset=".85" stop-color="#835c42"/></linearGradient><linearGradient id="Dégradé_sans_nom_6" x1="1200.59" y1="662.84" x2="1200.91" y2="686.35" gradientTransform="translate(727.21 1277.42) rotate(-90) scale(1 -1)" gradientUnits="userSpaceOnUse"><stop offset="0" stop-color="#ce6f33"/><stop offset=".28" stop-color="#bd6a36"/><stop offset=".83" stop-color="#925f3e"/><stop offset="1" stop-color="#835c42"/></linearGradient><linearGradient id="Dégradé_sans_nom_6-2" x1="1184.71" y1="671.33" x2="1183.32" y2="680.39" xlink:href="#Dégradé_sans_nom_6"/><linearGradient id="Dégradé_sans_nom_5-2" x1="738.95" y1="669.15" x2="721.84" y2="697.86" gradientTransform="translate(727.21 -701.67) rotate(90)" xlink:href="#Dégradé_sans_nom_5"/><linearGradient id="Dégradé_sans_nom_6-3" x1="882.94" y1="671.28" x2="881.54" y2="680.34" gradientTransform="translate(727.21 -825.05) rotate(90)" xlink:href="#Dégradé_sans_nom_6"/></defs><rect class="cls-4" x="346.65" y="183.94" width="21.54" height="103.21"/><path class="cls-4" d="m372.18,281.77c-.34,7.46-9.04,12.19-15.51,11.82-5.57-.32-13.68-4.66-14.01-11.82-.34-7.31,7.42-17.21,14.76-17.21,7.31,0,15.1,9.85,14.76,17.21h0Z"/><path class="cls-5" d="m348.41,281.23c.2.43.39,9.38.25,9.76"/><path class="cls-5" d="m366.94,281.45c-.2.43-.39,9.38-.25,9.76"/><path class="cls-5" d="m359.91,282.31c.23,1.1.31,9.08.12,10.14"/><path class="cls-5" d="m355.03,282.5c-.23,1.1-.31,9.08-.12,10.14"/><rect class="cls-4" x="384.5" y="184.32" width="21.54" height="103.21"/><path class="cls-4" d="m410.03,282.16c-.34,7.46-9.04,12.19-15.51,11.82-5.57-.32-13.68-4.66-14.01-11.82-.34-7.31,7.42-17.21,14.76-17.21,7.31,0,15.1,9.85,14.76,17.21h0Z"/><path class="cls-5" d="m386.26,281.62c.2.43.39,9.38.25,9.76"/><path class="cls-5" d="m404.78,281.84c-.2.43-.39,9.38-.25,9.76"/><path class="cls-5" d="m397.77,282.69c.23,1.1.31,9.08.12,10.14"/><path class="cls-5" d="m392.87,282.89c-.23,1.1-.31,9.08-.12,10.14"/><path class="cls-4" d="m302.91,9.81c1.5-.07,103.2.06,103.68.16,49.26,10.13,30.76,126.81,32.04,176.73.63,24.77-22.25,48.6-47.17,49.49-21.7.77-37.77,2.71-59.63-9.72-50.14-28.5-6.04-84.13-28.92-83.75-34.03.57-50.83-2.37-56.9-3.35-27.53-4.45-38.99-11.46-70.87-25.69-23.48-10.48,4.08-29.69,3.41-37.87-.58-7.04-21.28-33.58-6.13-39.2,41.24-15.28,53.78-20.77,68.14-22.34,5.05-.56,29.9-3.01,62.35-4.47v.02Z"/><path class="cls-10" d="m368.32,204.38c-10.92,3.94-17.61,2.97-29.37-2.65-48.06-22.98-7.25-85.63-28.75-86.93-18.2-1.1-81.54-.38-93.96-14.52-5.14-5.84,3.44-8.34,3.61-23.45.19-15.68-8.97-18.49-3.61-24.57,12.43-14.11,75.19-15.52,93.96-14.52,75.92,4.05,76.81,48.23,81.26,125.99.74,12.94-13.35,37.11-23.14,40.65h0Z"/><path class="cls-14" d="m217.46,37.7c10.53-1.48,28.97-21.18,28.56-21.51,13.64,2.58,25.48,4.64,35.2,6.4,3.85.7,9.98,1.81,19.96,1.08,4.79-.35,8.99-1.03,11.79-1.53,7.69-1.97,14.03-1.63,15.56.53,1.18,1.68-.86,3.92-1.58,4.66,8.19-.6,11.88,2.17,9.49,5.5-1.65,2.28-6.07,4.7-11.21,6.29.02.4.03,3.34-4.57,5.94-5.2,2.94-14.75,4.58-20.62,2.54-1.69,1.01-5.43,3.05-9.71,3.84-6.68,1.25-12.67-.87-12.18-5.84-1.4-.75-3.68-1.82-7.09-2.75-4.94-1.34-9.67-1.69-11.94-1.86-8.54-.65-22.94-1.84-41.65-3.3Z"/><path class="cls-7" d="m246.01,16.19l27.25,4.98,12.47,2.16c3.02.33,7.19.57,12.56.35,5.62-.23,10.74-.89,14.67-1.54,6.31-1.71,12.02-1.66,14.32.06,2.39,1.79.06,4.65-.35,5.13,6.07-.8,10.23.65,9.93,3.44-.3,2.86-5.23,6.42-11.65,8.35-.02.23-.4,3.68-6.17,6.56-5.67,2.82-14.37,3.99-19.03,1.93-1.15.62-6.1,3.2-11.54,3.89-6.66.84-11.59-1.46-10.35-5.89-1.31-.91-3.34-2-6.47-2.86-2.81-.77-5.67-1.13-8.01-1.31-15.4-1.25-30.8-2.48-46.2-3.73"/><polygon class="cls-14" points="96.23 135.25 50.97 144.8 13.72 137.49 9 126.97 23.53 101.94 44.3 85.81 96.23 135.25"/><polygon class="cls-14" points="97.49 17.11 52.23 7.56 14.98 14.87 10.25 25.4 24.79 50.42 45.55 66.55 97.49 17.11"/><path class="cls-14" d="m111.82,13.11c1.28-.11,28.78-2.35,49.52,11.05,20.22,13.07,20.67,32.36,21.09,50.93.39,16.87.71,31.02-13.3,43.89-13.08,12.02-36,20.47-57.32,18.1-11-1.23-22.6-5.3-35.31-11.05-10.85-4.91-16.19-6.93-22.7-12.9-13.31-12.2-12.51-27.87-12.61-38.03-.09-10.17-.22-24.79,13.07-37.53,7.99-7.65,19.95-11.32,28.89-15.08,9.19-3.86,16.33-8.24,28.66-9.38Z"/><path class="cls-9" d="m43.38,97.13c-11.92,11.11-24.17,25.58-18.68,29.74,6.19,4.69,16.51,5.7,29.11,4.69,8.49-.68,19.26-3.01,23.38-5.36-5.27-2.85-14.68-5.2-22.47-12.57-7.23-6.83-10.94-13.3-11.35-16.5h0Z"/><path class="cls-8" d="m41.43,83.3c1.91-.16,25.01-1.01,25.11-6.79.12-6.79-23.5-6.6-25.33-6.79"/><path class="cls-12" d="m47.05,97.13c4.01-.08,11.81-.92,10.43-5.11-1.15-1.85-8.04-1.94-13.3-.84"/><path class="cls-11" d="m44.03,53.53c-11.92-11.11-24.17-25.58-18.68-29.74,6.19-4.69,16.51-5.7,29.11-4.69,8.49.68,19.26,3.01,23.38,5.36-5.27,2.85-14.68,5.2-22.47,12.57-7.23,6.83-10.94,13.3-11.35,16.5h0Z"/><path class="cls-13" d="m47.09,53.46c4.01.08,11.81.92,10.43,5.11-1.15,1.85-8.04,1.94-13.3.84"/><path class="cls-3" d="m84.42,132.45c2.61.81,42.53,12.77,71.99-3.35,24.12-13.19,24.23-35.89,24.3-52.1.07-14.84.22-46.8-31.18-59.47-20.5-8.27-43.87-4.06-56.52-.63-4.25,1.16-7.29,2.22-8.6,2.69"/><path class="cls-3" d="m39.51,65.46C14.01,44.67,3.26,25.49,12,16.54c3.76-3.84,10.26-4.93,18.34-6.19,25.53-4,48.58,1.51,62.7,6.25"/><path class="cls-3" d="m39.51,87.12C14.01,107.91,3.26,127.1,12,136.04c3.76,3.84,10.26,4.93,18.34,6.19,25.53,4,48.58-1.51,62.7-6.25"/><path class="cls-3" d="m44.3,94.99c-2.43-3.7-6.39-11.02-6.19-20.61.19-8.81,3.81-15.54,6.19-19.18"/><ellipse class="cls-1" cx="97.95" cy="75.09" rx="1.6" ry="4.19"/><path class="cls-3" d="m102.02,75.09c12.16,0,20.25,3.05,20.69,6.28.36,2.63-4.4,5.06-5.74,5.74"/><path class="cls-3" d="m102.69,75.13c12.16,0,20.25-3.05,20.69-6.28.36-2.63-4.4-5.06-5.74-5.74"/><line class="cls-2" x1="96.23" y1="108.69" x2="107.64" y2="108.69"/><line class="cls-2" x1="96.25" y1="45.18" x2="107.66" y2="45.18"/><path class="cls-6" d="m130.05,145.96c-3.81-2.48-10.21-7.41-11.7-14.14-1.72-7.78,4.05-13.77,7.14-16.46"/><path class="cls-6" d="m148.82,146.5c-5.07-2.09-14-6.36-19.21-13.16-6.02-7.86-3.8-14.83-2.32-18.03"/><path class="cls-6" d="m171.03,145.45c-6.03-1.62-16.97-5.1-25.53-11.57-9.88-7.48-11.22-14.89-11.39-18.35"/><path class="cls-6" d="m125.03,6.55c-3.81,2.49-10.21,7.41-11.7,14.16-1.72,7.79,4.05,13.78,7.14,16.48"/><path class="cls-6" d="m143.8,6c-5.07,2.09-14,6.36-19.21,13.18-6.02,7.86-3.8,14.84-2.32,18.04"/><path class="cls-6" d="m166.01,7.04c-6.03,1.63-16.97,5.1-25.53,11.58-9.88,7.48-11.22,14.9-11.39,18.36"/><path class="cls-14" d="m212.36,113.71c10.53,1.48,28.97,21.18,28.56,21.51,13.64-2.58,25.48-4.64,35.2-6.4,3.85-.7,9.98-1.81,19.96-1.08,4.79.35,8.99,1.03,11.79,1.53,7.69,1.97,14.03,1.63,15.56-.53,1.18-1.68-.86-3.92-1.58-4.66,8.19.6,11.88-2.17,9.49-5.5-1.65-2.28-6.07-4.7-11.21-6.29.02-.4.03-3.34-4.57-5.94-5.2-2.94-14.75-4.58-20.62-2.54-1.69-1.01-5.43-3.05-9.71-3.84-6.68-1.25-12.67.87-12.18,5.84-1.4.75-3.68,1.82-7.09,2.75-4.94,1.34-9.67,1.69-11.94,1.86-8.54.65-22.94,1.84-41.65,3.3Z"/><path class="cls-7" d="m240.91,135.22l27.25-4.98,12.47-2.16c3.02-.33,7.19-.57,12.56-.35,5.62.23,10.74.89,14.67,1.54,6.31,1.71,12.02,1.66,14.32-.06,2.39-1.79.06-4.65-.35-5.13,6.07.8,10.23-.65,9.93-3.44-.3-2.86-5.23-6.42-11.65-8.35-.02-.23-.4-3.68-6.17-6.56-5.67-2.82-14.37-3.99-19.03-1.93-1.15-.62-6.1-3.2-11.54-3.89-6.66-.84-11.59,1.46-10.35,5.89-1.31.91-3.34,2-6.47,2.86-2.81.77-5.67,1.13-8.01,1.31-15.4,1.25-30.8,2.48-46.2,3.73"/></svg>