<?xml version="1.0" encoding="UTF-8"?><svg id="Calque_1" xmlns="http://www.w3.org/2000/svg" xmlns:xlink="http://www.w3.org/1999/xlink" viewBox="0 0 450 300"><defs><style>.cls-1{fill:url(#Dégradé_sans_nom_7-6);}.cls-1,.cls-2,.cls-3,.cls-4,.cls-5,.cls-6,.cls-7,.cls-8,.cls-9,.cls-10,.cls-11,.cls-12,.cls-13{stroke:#1a1a1a;}.cls-1,.cls-5,.cls-14,.cls-7{stroke-miterlimit:10;}.cls-2{stroke-width:5px;}.cls-2,.cls-3,.cls-4,.cls-5,.cls-6,.cls-8,.cls-13{stroke-linecap:round;}.cls-2,.cls-3,.cls-4,.cls-6,.cls-8,.cls-13{stroke-linejoin:round;}.cls-2,.cls-3,.cls-5,.cls-14,.cls-6,.cls-13{fill:none;}.cls-15{fill:url(#Dégradé_sans_nom_11-2);}.cls-15,.cls-16,.cls-17,.cls-18,.cls-19,.cls-20,.cls-21,.cls-22{stroke-width:0px;}.cls-16{fill:url(#Dégradé_sans_nom_12-2);}.cls-17{fill:url(#Dégradé_sans_nom_12-3);}.cls-18{fill:url(#Dégradé_sans_nom_7);}.cls-19{fill:url(#Dégradé_sans_nom_2);}.cls-3,.cls-5,.cls-14{stroke-width:4px;}.cls-4{fill:#1a1a1a;}.cls-4,.cls-6{stroke-width:8px;}.cls-14{stroke:#1d1d1b;}.cls-7,.cls-8,.cls-20{fill:#6ac74c;}.cls-7,.cls-13{stroke-width:6px;}.cls-8{stroke-width:3px;}.cls-9{fill:url(#Dégradé_sans_nom_7-3);stroke-miterlimit:10;stroke-width:1px;}.cls-10{fill:url(#Dégradé_sans_nom_7-5);stroke-miterlimit:10;stroke-width:1px;}.cls-11{fill:url(#Dégradé_sans_nom_7-2);stroke-miterlimit:10;stroke-width:1px;}.cls-12{fill:url(#Dégradé_sans_nom_7-4);stroke-miterlimit:10;stroke-width:1px;}.cls-21{fill:url(#Dégradé_sans_nom_12);}.cls-22{fill:url(#Dégradé_sans_nom_11);}</style><radialGradient id="Dégradé_sans_nom_7" cx="-160.14" cy="-48.32" fx="-160.14" fy="-48.32" r="152.57" gradientTransform="translate(175.79 83.63) rotate(-90) scale(.51 -1.27)" gradientUnits="userSpaceOnUse"><stop offset="0" stop-color="#ffa979"/><stop offset=".2" stop-color="#fba778"/><stop offset=".36" stop-color="#f1a176"/><stop offset=".51" stop-color="#e09772"/><stop offset=".65" stop-color="#c9896c"/><stop offset=".78" stop-color="#aa7765"/><stop offset=".87" stop-color="#916860"/></radialGradient><radialGradient id="Dégradé_sans_nom_2" cx="1626.01" cy="-3346.89" fx="1626.01" fy="-3346.89" r="117.2" gradientTransform="translate(295.11 -577.43) rotate(28.26) scale(.25 -.23) skewX(9)" gradientUnits="userSpaceOnUse"><stop offset="0" stop-color="#c04c23"/><stop offset=".21" stop-color="#be4821"/><stop offset=".43" stop-color="#b83c1b"/><stop offset=".64" stop-color="#af2812"/><stop offset=".85" stop-color="#a20c05"/><stop offset=".93" stop-color="#9d0000"/></radialGradient><radialGradient id="Dégradé_sans_nom_7-2" cx="2080.3" cy="-4057.38" fx="2080.3" fy="-4057.38" r="9.62" gradientTransform="translate(1081.29 454.38) rotate(-103.06) scale(.3 .2) skewX(5.7)" xlink:href="#Dégradé_sans_nom_7"/><radialGradient id="Dégradé_sans_nom_7-3" cx="2927.84" cy="-3338.92" fx="2927.84" fy="-3338.92" r="9.62" gradientTransform="translate(1111.44 357.72) rotate(-115.74) scale(.33 .23) skewX(18.57)" xlink:href="#Dégradé_sans_nom_7"/><radialGradient id="Dégradé_sans_nom_7-4" cx="3264.98" cy="-3145.15" fx="3264.98" fy="-3145.15" r="9.62" gradientTransform="translate(1108.04 335.15) rotate(-119.33) scale(.32 .24) skewX(22.78)" xlink:href="#Dégradé_sans_nom_7"/><radialGradient id="Dégradé_sans_nom_7-5" cx="5051.25" cy="-2260.59" fx="5051.25" fy="-2260.59" r="9.62" gradientTransform="translate(1077.11 219.17) rotate(-134.41) scale(.22 .28) skewX(40.76)" xlink:href="#Dégradé_sans_nom_7"/><radialGradient id="Dégradé_sans_nom_7-6" cx="3909.92" cy="-4742.66" fx="3909.92" fy="-4742.66" r="21.11" gradientTransform="translate(581.35 -624.79) rotate(166.41) scale(.24 .14) skewX(16.59)" xlink:href="#Dégradé_sans_nom_7"/><linearGradient id="Dégradé_sans_nom_11" x1="122.55" y1="313.82" x2="109.01" y2="336.53" gradientTransform="translate(358.85 376.99) rotate(-90) scale(1 -1)" gradientUnits="userSpaceOnUse"><stop offset="0" stop-color="#ffa979"/><stop offset=".85" stop-color="#916860"/></linearGradient><linearGradient id="Dégradé_sans_nom_12" x1="153.19" y1="308.02" x2="153.45" y2="326.64" gradientTransform="translate(358.85 376.99) rotate(-90) scale(1 -1)" gradientUnits="userSpaceOnUse"><stop offset="0" stop-color="#ffa979"/><stop offset=".2" stop-color="#ee9f75"/><stop offset=".6" stop-color="#c2856b"/><stop offset="1" stop-color="#916860"/></linearGradient><linearGradient id="Dégradé_sans_nom_12-2" x1="139.87" y1="314.73" x2="138.77" y2="321.9" xlink:href="#Dégradé_sans_nom_12"/><linearGradient id="Dégradé_sans_nom_11-2" x1="1792.78" y1="313.3" x2="1779.23" y2="336.01" gradientTransform="translate(358.85 -1602.11) rotate(90)" xlink:href="#Dégradé_sans_nom_11"/><linearGradient id="Dégradé_sans_nom_12-3" x1="1933.42" y1="314.7" x2="1932.32" y2="321.86" gradientTransform="translate(358.85 -1725.49) rotate(90)" xlink:href="#Dégradé_sans_nom_12"/></defs><path class="cls-7" d="m182.97,149.11c-18.86-17.04-22.5-30.76-22.44-40,.08-13.88,8.47-17.48,7.18-32.89-1.18-14.2-8.86-17.89-11.67-34.67-1.81-10.82-.42-20.07.95-26.03.31-.89,2.09-5.57,7.13-7.75,3.08-1.33,5.9-1.08,7.18-.89,12.09,10.12,21.07,11.32,26.93,10.67,8.33-.93,9.5-5.54,20.65-8,9.89-2.19,13.23.49,26.93,0,5.6-.2,13.64-.96,23.34-3.56,4-.03,9.81.97,16.68,3.01,4.15,1.24,6.63,2.66,6.66,4.1.06,3.32-13.27,5.98-23.34,8-9.58,1.91-14.89,2.98-22.44,2.67-11.02-.45-10.95-3.16-17.96-2.67-13.14.94-16.24,10.72-27.83,12.44-5.12.76-13.16.14-24.24-8-2.34,1.97-5.84,5.5-7.18,10.67-3.96,15.28,16.3,24.64,15.26,43.56-.7,12.76-10.36,16.41-8.08,25.78,2.26,9.31,13.97,14.65,24.24,17.78-5.99,8.6-11.97,17.18-17.96,25.78Z"/><rect class="cls-7" x="351.09" y="79.94" width="86.19" height="19.32"/><path class="cls-7" d="m432.78,76.36c6.23.3,10.18,8.11,9.88,13.9-.26,5-3.89,12.26-9.88,12.56-6.1.3-14.37-6.65-14.36-13.24,0-6.55,8.23-13.53,14.36-13.24h0Z"/><path class="cls-8" d="m432.34,97.67c.36-.17,7.83-.34,8.14-.22"/><path class="cls-8" d="m432.52,81.08c.36.17,7.83.34,8.14.22"/><path class="cls-8" d="m433.23,87.36c.92-.2,7.59-.26,8.47-.1"/><path class="cls-8" d="m433.4,91.75c.92.2,7.59.26,8.47.1"/><rect class="cls-7" x="351.41" y="46.01" width="86.19" height="19.32"/><path class="cls-7" d="m433.11,42.44c6.23.3,10.18,8.11,9.88,13.9-.26,5-3.89,12.26-9.88,12.56-6.1.3-14.37-6.65-14.36-13.24,0-6.55,8.23-13.53,14.36-13.24h0Z"/><path class="cls-8" d="m432.66,63.73c.36-.17,7.83-.34,8.14-.22"/><path class="cls-8" d="m432.84,47.15c.36.17,7.83.34,8.14.22"/><path class="cls-8" d="m433.56,53.42c.92-.2,7.59-.26,8.47-.1"/><path class="cls-8" d="m433.72,57.82c.92.2,7.59.26,8.47.1"/><path class="cls-7" d="m209.9,75.33c-6.12-31.26,75.66-65.66,126.44-41.04,15.86,7.69,23.27,22.78,23.27,41.71,0,18.92-5.78,42.25-23.58,42.34-114.46.56,23.8,169.45-128.36,164.34-22.41-.76-33.49-2.14-37.48-3.02-18.14-4.02-24.59-10.78-46.68-23.2-1.8-1,11.21-26.91,10.77-34.29-.38-6.36-12.57-35.3-12.57-35.3,26.39-15.47,43.31-16.42,44.89-20.17,4.87-11.58,52.2-46.02,43.31-91.36h0Z"/><path class="cls-18" d="m329.09,76c6.03,3.36,1.51,32.79-13.25,40.22-4,2.02-8.74,2.41-15.26,7.11,0,0-6.17,4.45-10.77,11.56-9.52,14.67-7.78,38.17-8.08,69.33-.21,21.72-.38,32.67-3.59,37.33-9.23,13.39-28.4,16.15-66.85,15.9-12.01-.08-53.71-.34-61.9-13.11-3.38-5.28,2.26-7.53,2.38-21.18.12-14.15-5.91-16.68-2.38-22.19,8.19-12.75,50.46-9.92,59.61-18.98,5.39-5.33,10.03-20.14,51.17-64,51.64-55.05,65.13-44.11,68.91-42h0Z"/><path class="cls-19" d="m147.25,259.44c4.53-1.98,18.61,9.56,18.58,9.98,4.26-6.53,8.02-12.04,11.08-16.62,1.21-1.81,3.14-4.71,7.19-7.18,1.95-1.19,3.79-1.91,5.04-2.34,3.63-.67,5.92-2.94,5.72-5.33-.15-1.84-1.74-3.18-2.27-3.6,3.32-2.04,3.73-5.63,1.63-7.8-1.45-1.49-4-2.23-6.52-2.04-.13-.36-1.19-2.94-3.87-3.8-3.03-.96-7.25.59-8.75,4.21-1.01-.36-3.15-.99-5.07-.35-2.99.99-4.51,4.74-2.53,8.94-.26,1.1-.75,2.76-1.71,4.63-1.39,2.72-3.07,4.51-3.87,5.37-3.02,3.24-8.05,8.79-14.64,15.91h0Z"/><path class="cls-7" d="m165.82,269.42l8.57-12.89,3.97-5.8c1.03-1.23,2.53-2.75,4.64-4.23,2.22-1.56,4.41-2.57,6.12-3.24,3.01-.47,5.16-2.29,5.42-4.53.27-2.33-1.64-4.11-1.98-4.4,2.59-1.2,3.65-3.77,2.54-6.12-1.14-2.43-4.29-4.01-7.42-3.7-.09-.2-1.47-3.11-4.7-3.83-3.17-.71-6.89.99-7.93,4.25-.66-.19-3.47-.91-5.78.19-2.84,1.34-3.88,4.91-1.82,8.41-.17,1.21-.55,2.8-1.44,4.53-.79,1.56-1.75,2.77-2.58,3.65-5.4,5.91-10.81,11.81-16.22,17.72"/><path class="cls-7" d="m177.69,180.86c-4.11-1.69-19.4,4.43-19.42,4.69-3.21-4.58-6.07-8.44-8.39-11.66-.92-1.27-2.38-3.31-5.96-5.26-1.71-.94-3.4-1.57-4.55-1.96-3.43-.76-5.32-2.43-4.79-3.94.4-1.16,2.14-1.88,2.71-2.1-2.94-1.61-2.83-3.95-.48-5.15,1.61-.83,4.19-1.07,6.61-.7.19-.21,1.57-1.78,4.29-2.07,3.08-.34,6.95,1.04,7.89,3.5,1.02-.14,3.2-.34,4.96.24,2.76.91,3.7,3.45,1.19,5.96.1.73.33,1.83,1.01,3.12.97,1.87,2.33,3.16,2.99,3.8,2.46,2.35,6.56,6.36,11.95,11.53Z"/><ellipse class="cls-11" cx="157.48" cy="159.62" rx="1.84" ry="2.39" transform="translate(-25.23 289.6) rotate(-80.82)"/><ellipse class="cls-9" cx="149.23" cy="156.45" rx="1.88" ry="3.01" transform="translate(-37.79 264.94) rotate(-76.47)"/><ellipse class="cls-12" cx="141.63" cy="158.33" rx="1.81" ry="3.1" transform="translate(-46.33 257.32) rotate(-75.96)"/><ellipse class="cls-10" cx="140.74" cy="163.56" rx="1.38" ry="3.19" transform="translate(-49.99 264.47) rotate(-77.17)"/><path class="cls-1" d="m145.97,162.47s-.09-.08-.13-.12c-.63-.73.38-1.69,2.24-2.14s3.91-.23,4.54.51c.04.04.07.09.1.13.87.02,1.68.28,2.06.73.55.63,0,1.39-1.23,1.68-.35.08-.71.12-1.07.12-.31.16-.75.32-1.27.44s-1.03.2-1.47.21c-.23.14-.52.27-.87.35-1.23.29-2.67.03-3.21-.6-.38-.44-.22-.93.31-1.3h0Z"/><path class="cls-14" d="m158.27,185.56l-6.48-9.04-3.03-4.07c-.83-.88-2.06-1.99-3.91-3.14-1.93-1.2-3.91-2.05-5.49-2.63-2.85-.58-4.69-1.95-4.61-3.4.07-1.51,2.17-2.48,2.53-2.64-2.34-1-3.01-2.75-1.6-4.16,1.45-1.45,4.73-2.17,7.72-1.69.12-.12,1.87-1.86,5.1-2.03,3.17-.16,6.54,1.26,7.08,3.45.66-.06,3.49-.27,5.58.65,2.56,1.12,3.07,3.49.57,5.56,0,.79.13,1.84.75,3.04.55,1.07,1.3,1.94,1.98,2.58,4.41,4.28,8.81,8.56,13.22,12.84"/><polygon class="cls-20" points="76.04 272.63 40.22 280.6 10.74 274.49 7 265.7 18.5 244.79 34.94 231.32 76.04 272.63"/><polygon class="cls-20" points="77.04 173.9 41.22 165.94 11.73 172.04 8 180.84 19.5 201.74 35.94 215.22 77.04 173.9"/><path class="cls-20" d="m88.38,170.57c1.01-.1,22.78-1.96,39.2,9.24,16,10.92,16.36,27.04,16.69,42.55.31,14.09.57,25.92-10.52,36.68-10.35,10.04-28.5,17.11-45.36,15.12-8.71-1.03-17.88-4.43-27.95-9.24-8.59-4.11-12.81-5.79-17.96-10.78-10.53-10.2-9.9-23.29-9.98-31.78-.07-8.5-.18-20.71,10.34-31.36,6.32-6.4,15.79-9.46,22.87-12.6,7.27-3.23,12.93-6.89,22.68-7.84h0Z"/><path class="cls-22" d="m34.21,240.76c-9.44,9.28-19.13,21.37-14.79,24.84,4.9,3.92,13.06,4.76,23.05,3.92,6.72-.57,15.24-2.52,18.51-4.48-4.17-2.38-11.62-4.34-17.79-10.5-5.72-5.71-8.66-11.11-8.98-13.79h0Z"/><path class="cls-21" d="m32.67,229.22c1.51-.13,19.8-.84,19.87-5.67.09-5.67-18.59-5.52-20.05-5.67"/><path class="cls-16" d="m37.11,240.76c3.18-.07,9.35-.77,8.26-4.27-.91-1.54-6.37-1.62-10.52-.7"/><path class="cls-15" d="m34.73,204.34c-9.44-9.28-19.13-21.37-14.79-24.84,4.9-3.92,13.06-4.76,23.05-3.92,6.72.57,15.24,2.52,18.51,4.48-4.17,2.38-11.62,4.34-17.79,10.5-5.72,5.71-8.66,11.11-8.98,13.79h0Z"/><path class="cls-17" d="m37.15,204.28c3.18.07,9.35.77,8.26,4.27-.91,1.54-6.37,1.62-10.52.7"/><path class="cls-2" d="m66.7,270.28c2.06.68,33.66,10.67,56.97-2.8,19.09-11.02,19.18-29.98,19.23-43.54.05-12.4.17-39.1-24.68-49.7-16.22-6.92-34.73-3.39-44.73-.52-3.37.96-5.77,1.86-6.81,2.25"/><path class="cls-13" d="m31.14,214.31c-20.18-17.38-28.69-33.4-21.77-40.87,2.97-3.21,8.12-4.12,14.52-5.18,20.2-3.35,38.45,1.26,49.63,5.22"/><path class="cls-13" d="m31.14,232.41c-20.18,17.38-28.69,33.4-21.77,40.87,2.97,3.21,8.12,4.12,14.52,5.18,20.2,3.35,38.45-1.26,49.63-5.22"/><path class="cls-13" d="m34.94,238.99c-1.92-3.09-5.06-9.2-4.9-17.22.14-7.36,3.01-12.99,4.9-16.03"/><ellipse class="cls-4" cx="77.4" cy="222.36" rx="1.27" ry="3.5"/><path class="cls-3" d="m80.62,222.36c9.62,0,16.03,2.54,16.38,5.25.29,2.2-3.47,4.23-4.54,4.79"/><path class="cls-3" d="m81.15,222.39c9.62,0,16.03-2.54,16.38-5.25.29-2.2-3.47-4.23-4.54-4.79"/><line class="cls-6" x1="76.04" y1="250.43" x2="85.06" y2="250.43"/><line class="cls-6" x1="76.06" y1="197.37" x2="85.08" y2="197.37"/><path class="cls-5" d="m102.8,293.33c-3.02-3.03-8.08-9.03-9.26-17.24-1.36-9.48,3.21-16.79,5.66-20.08"/><path class="cls-5" d="m117.65,294c-4.01-2.54-11.08-7.75-15.2-16.05-4.76-9.58-3.01-18.08-1.84-21.99"/><path class="cls-5" d="m135.24,292.72c-4.78-1.97-13.43-6.22-20.2-14.11-7.82-9.11-8.89-18.16-9.01-22.37"/><path class="cls-5" d="m98.84,153.33c-3.02,3.03-8.08,9.03-9.26,17.24-1.36,9.48,3.21,16.79,5.66,20.08"/><path class="cls-5" d="m113.69,152.67c-4.01,2.54-11.08,7.75-15.2,16.05-4.76,9.58-3.01,18.08-1.84,21.99"/><path class="cls-5" d="m131.27,153.95c-4.78,1.97-13.43,6.22-20.2,14.11-7.82,9.11-8.89,18.16-9.01,22.37"/></svg>