<?xml version="1.0" encoding="UTF-8"?><svg id="Calque_1" xmlns="http://www.w3.org/2000/svg" xmlns:xlink="http://www.w3.org/1999/xlink" viewBox="0 0 294.5 292"><defs><style>.cls-1{fill:url(#Dégradé_sans_nom_4);}.cls-1,.cls-2,.cls-3,.cls-4,.cls-5,.cls-6{stroke-width:0px;}.cls-2{fill:url(#Dégradé_sans_nom_5);}.cls-7{stroke-width:10px;}.cls-7,.cls-8,.cls-9,.cls-10{fill:none;stroke:#1a1a1a;stroke-linecap:round;}.cls-7,.cls-8,.cls-10{stroke-linejoin:round;}.cls-3{fill:url(#Dégradé_sans_nom_4-2);}.cls-4{fill:url(#Dégradé_sans_nom_5-2);}.cls-5{fill:url(#Dégradé_sans_nom_5-3);}.cls-8{stroke-width:15px;}.cls-9{stroke-miterlimit:10;stroke-width:5px;}.cls-6{fill:#f7db4f;}.cls-10{stroke-width:12px;}</style><linearGradient id="Dégradé_sans_nom_4" x1="83.55" y1="212.58" x2="55.64" y2="259.39" gradientTransform="translate(0 296.99) scale(1 -1)" gradientUnits="userSpaceOnUse"><stop offset="0" stop-color="#b38fc6"/><stop offset=".85" stop-color="#735d7b"/></linearGradient><linearGradient id="Dégradé_sans_nom_5" x1="146.28" y1="200.72" x2="146.82" y2="239.06" gradientTransform="translate(0 296.99) scale(1 -1)" gradientUnits="userSpaceOnUse"><stop offset="0" stop-color="#b38fc6"/><stop offset=".28" stop-color="#a483b5"/><stop offset=".83" stop-color="#7f678a"/><stop offset="1" stop-color="#735d7b"/></linearGradient><linearGradient id="Dégradé_sans_nom_5-2" x1="119.02" y1="214.54" x2="116.74" y2="229.3" xlink:href="#Dégradé_sans_nom_5"/><linearGradient id="Dégradé_sans_nom_4-2" x1="-10.55" y1="211.53" x2="-38.46" y2="258.33" gradientTransform="translate(203.6 296.99) rotate(-180)" xlink:href="#Dégradé_sans_nom_4"/><linearGradient id="Dégradé_sans_nom_5-3" x1="148.2" y1="214.47" x2="145.92" y2="229.22" gradientTransform="translate(326.98 296.99) rotate(-180)" xlink:href="#Dégradé_sans_nom_5"/></defs><polygon class="cls-6" points="46.28 148.22 29.95 74.42 42.46 13.69 60.47 6 103.3 29.7 130.9 63.56 46.28 148.22"/><polygon class="cls-6" points="248.5 150.28 264.82 76.48 252.31 15.74 234.3 8.04 191.47 31.74 163.87 65.6 248.5 150.28"/><path class="cls-6" d="m255.33,173.65c.2,2.09,4.02,46.93-18.93,80.75-22.36,32.97-55.39,33.69-87.17,34.4-28.87.63-53.09,1.17-75.13-21.68-20.57-21.33-35.05-58.7-30.97-93.46,2.11-17.94,9.07-36.84,18.93-57.57,8.41-17.69,11.85-26.4,22.08-37.01,20.89-21.69,47.7-20.41,65.09-20.56,17.41-.15,42.42-.36,64.23,21.3,13.1,13.03,19.37,32.53,25.81,47.1,6.61,14.98,14.1,26.63,16.06,46.73h0Z"/><path class="cls-1" d="m111.54,62.06c-19.01-19.44-43.78-39.41-50.9-30.47-8.03,10.09-9.75,26.92-8.03,47.48,1.16,13.85,5.16,31.41,9.17,38.13,4.88-8.6,8.89-23.92,21.5-36.64,11.69-11.77,22.75-17.84,28.24-18.5h0Z"/><path class="cls-2" d="m135.19,58.89c.27,3.11,1.72,40.78,11.62,40.94,11.62.19,11.3-38.31,11.62-41.31"/><path class="cls-4" d="m111.54,68.04c.14,6.54,1.58,19.25,8.75,17.01,3.15-1.87,3.32-13.11,1.43-21.68"/><path class="cls-3" d="m186.16,63.11c19.01-19.44,43.78-39.41,50.9-30.47,8.03,10.09,9.75,26.92,8.03,47.48-1.16,13.85-5.16,31.41-9.17,38.13-4.88-8.6-8.89-23.92-21.5-36.64-11.69-11.77-22.75-17.84-28.24-18.5h0Z"/><path class="cls-5" d="m186.27,68.11c-.14,6.54-1.58,19.25-8.75,17.01-3.15-1.87-3.32-13.11-1.43-21.68"/><path class="cls-10" d="m51.09,128.98c-1.4,4.26-21.85,69.33,5.74,117.38,22.58,39.33,61.41,39.5,89.17,39.63,25.39.12,80.1.36,101.79-50.84,14.17-33.43,6.94-71.54,1.07-92.15-1.97-6.93-3.8-11.89-4.6-14.02"/><path class="cls-10" d="m165.73,55.74C201.32,14.16,234.14-3.36,249.45,10.88c6.58,6.12,8.44,16.73,10.61,29.91,6.85,41.61-2.59,79.21-10.69,102.24"/><path class="cls-10" d="m128.67,55.74C93.08,14.16,60.25-3.36,44.94,10.88c-6.58,6.12-8.44,16.73-10.61,29.91-6.85,41.61,2.59,79.21,10.69,102.24"/><path class="cls-10" d="m115.19,63.56c6.34-3.96,18.85-10.42,35.27-10.09,15.08.3,26.6,6.2,32.83,10.09"/><ellipse class="cls-8" cx="149.24" cy="151.04" rx="7.17" ry="2.62"/><path class="cls-7" d="m149.24,157.67c0,19.83-5.21,33.02-10.76,33.74-4.51.59-8.67-7.16-9.82-9.36"/><path class="cls-7" d="m149.18,158.76c0,19.83,5.21,33.02,10.76,33.74,4.51.59,8.67-7.16,9.82-9.36"/><line class="cls-8" x1="91.75" y1="148.22" x2="91.75" y2="166.82"/><line class="cls-8" x1="200.44" y1="148.27" x2="200.44" y2="166.86"/><path class="cls-9" d="m3.87,203.37c6.21-6.21,18.49-16.64,35.32-19.06,19.43-2.79,34.39,6.6,41.12,11.65"/><path class="cls-9" d="m2.5,233.97c5.21-8.27,15.88-22.84,32.88-31.33,19.62-9.81,37.03-6.2,45.05-3.79"/><path class="cls-9" d="m5.12,270.2c4.05-9.84,12.74-27.68,28.91-41.62,18.66-16.11,37.19-18.31,45.83-18.58"/><path class="cls-9" d="m290.63,195.19c-6.21-6.21-18.49-16.64-35.32-19.06-19.43-2.79-34.39,6.6-41.12,11.65"/><path class="cls-9" d="m292,225.79c-5.21-8.27-15.88-22.84-32.88-31.33-19.62-9.81-37.03-6.2-45.05-3.79"/><path class="cls-9" d="m289.38,262.02c-4.05-9.84-12.74-27.68-28.91-41.62-18.66-16.11-37.19-18.31-45.83-18.58"/></svg>