<?xml version="1.0" encoding="UTF-8"?><svg id="Calque_1" xmlns="http://www.w3.org/2000/svg" xmlns:xlink="http://www.w3.org/1999/xlink" viewBox="0 0 300 300"><defs><style>.cls-1{fill:url(#Dégradé_sans_nom_4);}.cls-1,.cls-2,.cls-3,.cls-4,.cls-5,.cls-6{stroke-width:0px;}.cls-2{fill:url(#Dégradé_sans_nom_5);}.cls-7{stroke-width:10px;}.cls-7,.cls-8,.cls-9,.cls-10,.cls-11{stroke:#1a1a1a;stroke-linecap:round;}.cls-7,.cls-8,.cls-9,.cls-11{stroke-linejoin:round;}.cls-7,.cls-9,.cls-10,.cls-11{fill:none;}.cls-8{fill:#1a1a1a;}.cls-8,.cls-9{stroke-width:15px;}.cls-3{fill:url(#Dégradé_sans_nom_4-2);}.cls-4{fill:url(#Dégradé_sans_nom_5-2);}.cls-5{fill:url(#Dégradé_sans_nom_5-3);}.cls-10{stroke-miterlimit:10;stroke-width:5px;}.cls-6{fill:#f7db4f;}.cls-11{stroke-width:12px;}</style><linearGradient id="Dégradé_sans_nom_4" x1="86.89" y1="215.17" x2="58.88" y2="262.15" gradientTransform="translate(0 302) scale(1 -1)" gradientUnits="userSpaceOnUse"><stop offset="0" stop-color="#b38fc6"/><stop offset=".85" stop-color="#735d7b"/></linearGradient><linearGradient id="Dégradé_sans_nom_5" x1="149.04" y1="203.41" x2="149.57" y2="241.88" gradientTransform="translate(0 302) scale(1 -1)" gradientUnits="userSpaceOnUse"><stop offset="0" stop-color="#b38fc6"/><stop offset=".28" stop-color="#a483b5"/><stop offset=".83" stop-color="#7f678a"/><stop offset="1" stop-color="#735d7b"/></linearGradient><linearGradient id="Dégradé_sans_nom_5-2" x1="122.04" y1="217.27" x2="119.75" y2="232.09" xlink:href="#Dégradé_sans_nom_5"/><linearGradient id="Dégradé_sans_nom_4-2" x1="1612.82" y1="214.12" x2="1584.81" y2="261.08" gradientTransform="translate(1829.1 302) rotate(-180)" xlink:href="#Dégradé_sans_nom_4"/><linearGradient id="Dégradé_sans_nom_5-3" x1="1771.24" y1="217.2" x2="1768.96" y2="232.01" gradientTransform="translate(1952.48 302) rotate(-180)" xlink:href="#Dégradé_sans_nom_5"/></defs><polygon class="cls-6" points="49.9 150.73 33.72 76.67 46.12 15.73 63.97 8 106.43 31.78 133.79 65.76 49.9 150.73"/><polygon class="cls-6" points="250.37 152.79 266.56 78.73 254.15 17.78 236.3 10.05 193.84 33.84 166.47 67.82 250.37 152.79"/><path class="cls-6" d="m257.15,176.24c.2,2.1,3.98,47.09-18.76,81.04-22.17,33.09-54.91,33.81-86.42,34.52-28.62.63-52.63,1.17-74.48-21.76-20.39-21.41-34.75-58.91-30.7-93.79,2.09-18,8.99-36.97,18.76-57.77,8.34-17.75,11.75-26.49,21.89-37.14,20.71-21.76,47.29-20.48,64.53-20.63,17.26-.15,42.06-.37,63.68,21.38,12.99,13.07,19.2,32.64,25.58,47.27,6.56,15.03,13.98,26.72,15.92,46.89h0Z"/><path class="cls-1" d="m114.59,64.26c-18.84-19.5-43.4-39.55-50.46-30.58-7.96,10.13-9.66,27.02-7.96,47.65,1.15,13.9,5.12,31.52,9.09,38.27,4.84-8.63,8.81-24.01,21.32-36.77,11.59-11.82,22.56-17.91,28-18.57h0Z"/><path class="cls-2" d="m138.05,61.07c.26,3.13,1.7,40.92,11.52,41.08,11.52.19,11.2-38.45,11.52-41.46"/><path class="cls-4" d="m114.59,70.26c.14,6.56,1.56,19.32,8.67,17.07,3.12-1.88,3.29-13.15,1.42-21.76"/><path class="cls-3" d="m188.57,65.32c18.84-19.5,43.4-39.55,50.46-30.58,7.96,10.13,9.66,27.02,7.96,47.65-1.15,13.9-5.12,31.52-9.09,38.27-4.84-8.63-8.81-24.01-21.32-36.77-11.59-11.82-22.56-17.91-28-18.57h0Z"/><path class="cls-5" d="m188.68,70.34c-.14,6.56-1.56,19.32-8.67,17.07-3.12-1.88-3.29-13.15-1.42-21.76"/><path class="cls-11" d="m54.67,131.41c-1.39,4.28-21.66,69.58,5.69,117.8,22.38,39.47,60.88,39.64,88.4,39.77,25.17.12,79.41.36,100.92-51.02,14.04-33.54,6.88-71.79,1.06-92.48-1.96-6.96-3.77-11.93-4.56-14.07"/><path class="cls-11" d="m168.32,57.92C203.6,16.19,236.14-1.4,251.32,12.9c6.52,6.14,8.36,16.79,10.51,30.02,6.79,41.76-2.56,79.49-10.59,102.6"/><path class="cls-11" d="m131.58,57.92C96.3,16.19,63.75-1.4,48.58,12.9c-6.52,6.14-8.36,16.79-10.51,30.02-6.79,41.76,2.56,79.49,10.59,102.6"/><path class="cls-11" d="m118.22,65.76c6.28-3.97,18.69-10.46,34.97-10.13,14.95.3,26.37,6.22,32.54,10.13"/><ellipse class="cls-8" cx="151.97" cy="153.55" rx="7.11" ry="2.63"/><path class="cls-7" d="m151.97,160.21c0,19.9-5.17,33.13-10.66,33.86-4.47.59-8.59-7.19-9.73-9.4"/><path class="cls-7" d="m151.91,161.3c0,19.9,5.17,33.13,10.66,33.86,4.47.59,8.59-7.19,9.73-9.4"/><line class="cls-9" x1="94.98" y1="150.73" x2="94.98" y2="169.4"/><line class="cls-9" x1="202.73" y1="150.77" x2="202.73" y2="169.43"/><path class="cls-10" d="m7.86,206.07c6.15-6.23,18.33-16.7,35.02-19.13,19.26-2.8,34.09,6.63,40.77,11.69"/><path class="cls-10" d="m6.5,236.78c5.16-8.3,15.75-22.92,32.6-31.44,19.45-9.84,36.71-6.22,44.66-3.8"/><path class="cls-10" d="m9.1,273.13c4.01-9.88,12.63-27.77,28.66-41.77,18.5-16.16,36.87-18.37,45.44-18.65"/><path class="cls-10" d="m292.14,197.87c-6.15-6.23-18.33-16.7-35.02-19.13-19.26-2.8-34.09,6.63-40.77,11.69"/><path class="cls-10" d="m293.5,228.57c-5.16-8.3-15.75-22.92-32.6-31.44-19.45-9.84-36.71-6.22-44.66-3.8"/><path class="cls-10" d="m290.9,264.93c-4.01-9.88-12.63-27.77-28.66-41.77-18.5-16.16-36.87-18.37-45.44-18.65"/></svg>