<?xml version="1.0" encoding="UTF-8"?><svg id="Calque_1" xmlns="http://www.w3.org/2000/svg" xmlns:xlink="http://www.w3.org/1999/xlink" viewBox="0 0 150 150"><defs><style>.cls-1{stroke-width:5px;}.cls-1,.cls-2,.cls-3{stroke:#1a1a1a;stroke-linecap:round;stroke-linejoin:round;}.cls-1,.cls-3{fill:none;}.cls-4{fill:url(#Dégradé_sans_nom_15-2);}.cls-4,.cls-5,.cls-6,.cls-7,.cls-8,.cls-9{stroke-width:0px;}.cls-5{fill:url(#Dégradé_sans_nom_16-3);}.cls-6{fill:url(#Dégradé_sans_nom_16-2);}.cls-2{fill:#1a1a1a;}.cls-2,.cls-3{stroke-width:4px;}.cls-7{fill:#a43be7;}.cls-8{fill:url(#Dégradé_sans_nom_15);}.cls-9{fill:url(#Dégradé_sans_nom_16);}</style><linearGradient id="Dégradé_sans_nom_15" x1="43.44" y1="821.42" x2="29.44" y2="797.93" gradientTransform="translate(0 -778)" gradientUnits="userSpaceOnUse"><stop offset="0" stop-color="#ef5b66"/><stop offset=".85" stop-color="#ce8c8d"/></linearGradient><linearGradient id="Dégradé_sans_nom_16" x1="74.53" y1="827.3" x2="74.79" y2="808.06" gradientTransform="translate(0 -778)" gradientUnits="userSpaceOnUse"><stop offset="0" stop-color="#ef5b66"/><stop offset=".4" stop-color="#e36b73"/><stop offset="1" stop-color="#ce8c8d"/></linearGradient><linearGradient id="Dégradé_sans_nom_16-2" x1="61.02" y1="820.37" x2="59.87" y2="812.96" xlink:href="#Dégradé_sans_nom_16"/><linearGradient id="Dégradé_sans_nom_15-2" x1="-47.04" y1="821.94" x2="-61.05" y2="798.46" gradientTransform="translate(61.1 -778) rotate(-180) scale(1 -1)" xlink:href="#Dégradé_sans_nom_15"/><linearGradient id="Dégradé_sans_nom_16-3" x1="93.86" y1="820.4" x2="92.72" y2="813" gradientTransform="translate(184.48 -778) rotate(-180) scale(1 -1)" xlink:href="#Dégradé_sans_nom_16"/></defs><polygon class="cls-7" points="24.95 75.37 16.86 38.34 23.06 7.87 31.99 4 53.22 15.89 66.89 32.88 24.95 75.37"/><polygon class="cls-7" points="125.18 76.4 133.28 39.37 127.07 8.89 118.15 5.03 96.92 16.92 83.24 33.91 125.18 76.4"/><path class="cls-7" d="m128.57,88.12c.1,1.05,1.99,23.54-9.38,40.52-11.08,16.54-27.46,16.9-43.21,17.26-14.31.32-26.32.59-37.24-10.88-10.19-10.71-17.38-29.46-15.35-46.9,1.05-9,4.5-18.49,9.38-28.89,4.17-8.88,5.88-13.24,10.94-18.57,10.35-10.88,23.65-10.24,32.27-10.31,8.63-.08,21.03-.18,31.84,10.69,6.5,6.53,9.6,16.32,12.79,23.64,3.28,7.51,6.99,13.36,7.96,23.44h0Z"/><path class="cls-8" d="m57.29,32.13c-9.42-9.75-21.7-19.77-25.23-15.29-3.98,5.07-4.83,13.51-3.98,23.83.58,6.95,2.56,15.76,4.54,19.14,2.42-4.31,4.4-12.01,10.66-18.39,5.8-5.91,11.28-8.96,14-9.28h0Z"/><path class="cls-9" d="m69.03,30.54c.13,1.56.85,20.46,5.76,20.54,5.76.1,5.6-19.23,5.76-20.73"/><path class="cls-6" d="m57.29,35.13c.07,3.28.78,9.66,4.33,8.53,1.56-.94,1.65-6.58.71-10.88"/><path class="cls-4" d="m94.29,32.66c9.42-9.75,21.7-19.77,25.23-15.29,3.98,5.07,4.83,13.51,3.98,23.83-.57,6.95-2.56,15.76-4.54,19.14-2.42-4.31-4.4-12.01-10.66-18.39-5.79-5.91-11.28-8.96-14-9.28h0Z"/><path class="cls-5" d="m94.34,35.17c-.07,3.28-.78,9.66-4.33,8.53-1.56-.94-1.64-6.58-.71-10.88"/><path class="cls-3" d="m27.33,65.71c-.69,2.14-10.83,34.79,2.84,58.9,11.19,19.73,30.44,19.82,44.2,19.89,12.58.06,39.71.18,50.46-25.51,7.02-16.77,3.44-35.89.53-46.24-.98-3.48-1.89-5.96-2.28-7.04"/><path class="cls-1" d="m84.16,28.96C101.8,8.1,118.07-.7,125.66,6.45c3.26,3.07,4.18,8.4,5.26,15.01,3.4,20.88-1.28,39.74-5.29,51.3"/><path class="cls-1" d="m65.79,28.96C48.15,8.1,31.88-.7,24.29,6.45c-3.26,3.07-4.18,8.4-5.26,15.01-3.4,20.88,1.28,39.74,5.3,51.3"/><path class="cls-1" d="m59.11,32.88c3.14-1.99,9.35-5.23,17.49-5.07,7.47.15,13.18,3.11,16.27,5.07"/><ellipse class="cls-2" cx="75.99" cy="76.78" rx="3.56" ry="1.32"/><path class="cls-3" d="m75.99,80.11c0,9.95-2.58,16.57-5.33,16.93-2.24.29-4.29-3.6-4.86-4.7"/><path class="cls-3" d="m75.96,80.65c0,9.95,2.58,16.57,5.33,16.93,2.24.29,4.29-3.6,4.86-4.7"/><line class="cls-3" x1="47.49" y1="75.37" x2="47.49" y2="84.7"/><line class="cls-3" x1="101.36" y1="75.39" x2="101.36" y2="84.72"/><path class="cls-3" d="m3.93,103.04c3.08-3.11,9.17-8.35,17.51-9.57,9.63-1.4,17.05,3.32,20.39,5.85"/><path class="cls-3" d="m3.25,118.39c2.58-4.15,7.88-11.46,16.3-15.72,9.73-4.92,18.35-3.11,22.33-1.9"/><path class="cls-3" d="m4.55,136.57c2.01-4.94,6.31-13.89,14.33-20.89,9.25-8.08,18.44-9.18,22.72-9.32"/><path class="cls-3" d="m146.07,98.94c-3.07-3.11-9.16-8.35-17.51-9.57-9.63-1.4-17.04,3.32-20.39,5.85"/><path class="cls-3" d="m146.75,114.29c-2.58-4.15-7.88-11.46-16.3-15.72-9.72-4.92-18.35-3.11-22.33-1.9"/><path class="cls-3" d="m145.45,132.47c-2.01-4.94-6.32-13.89-14.33-20.89-9.25-8.08-18.43-9.18-22.72-9.32"/></svg>