<?xml version="1.0" encoding="UTF-8"?><svg id="Calque_1" xmlns="http://www.w3.org/2000/svg" xmlns:xlink="http://www.w3.org/1999/xlink" viewBox="0 0 450 300"><defs><style>.cls-1{fill:url(#Dégradé_sans_nom_11-10);}.cls-1,.cls-2,.cls-3,.cls-4,.cls-5,.cls-6,.cls-7,.cls-8,.cls-9,.cls-10,.cls-11,.cls-12,.cls-13,.cls-14,.cls-15{stroke:#1a1a1a;}.cls-1,.cls-2,.cls-16,.cls-10,.cls-11,.cls-12,.cls-17,.cls-15{stroke-miterlimit:10;}.cls-2,.cls-16,.cls-15{stroke-width:5px;}.cls-2,.cls-18{fill:#a43be7;}.cls-3{fill:url(#Dégradé_sans_nom_11-7);stroke-miterlimit:10;stroke-width:1px;}.cls-4{fill:url(#Dégradé_sans_nom_11-4);}.cls-4,.cls-5{stroke-miterlimit:10;stroke-width:1px;}.cls-5{fill:url(#Dégradé_sans_nom_11-9);}.cls-6{fill:url(#Dégradé_sans_nom_11-2);stroke-miterlimit:10;stroke-width:1px;}.cls-7{fill:url(#Dégradé_sans_nom_11-6);}.cls-7,.cls-9{stroke-miterlimit:10;stroke-width:1px;}.cls-8{fill:#1a1a1a;}.cls-8,.cls-13{stroke-width:10px;}.cls-8,.cls-13,.cls-17,.cls-14,.cls-15{stroke-linecap:round;}.cls-8,.cls-13,.cls-14{stroke-linejoin:round;}.cls-19{fill:url(#Dégradé_sans_nom_11-11);}.cls-19,.cls-20,.cls-21,.cls-22,.cls-18,.cls-23,.cls-24{stroke-width:0px;}.cls-20{fill:url(#Dégradé_sans_nom_15-2);}.cls-21{fill:url(#Dégradé_sans_nom_16-3);}.cls-22{fill:url(#Dégradé_sans_nom_16-2);}.cls-16,.cls-13,.cls-17,.cls-14,.cls-15{fill:none;}.cls-16,.cls-17{stroke:#1d1d1b;}.cls-9{fill:url(#Dégradé_sans_nom_11);}.cls-10{fill:url(#Dégradé_sans_nom_11-5);}.cls-11{fill:url(#Dégradé_sans_nom_11-8);}.cls-12{fill:url(#Dégradé_sans_nom_11-3);}.cls-17{stroke-width:2px;}.cls-14{stroke-width:8px;}.cls-23{fill:url(#Dégradé_sans_nom_15);}.cls-24{fill:url(#Dégradé_sans_nom_16);}</style><radialGradient id="Dégradé_sans_nom_11" cx="693.68" cy="-1019.33" fx="693.68" fy="-1019.33" r="9.62" gradientTransform="translate(14.94 1491.34) rotate(-22.79) scale(1 1.11) skewX(-10.85)" gradientUnits="userSpaceOnUse"><stop offset="0" stop-color="#ef5b66"/><stop offset=".28" stop-color="#ec5e68"/><stop offset=".5" stop-color="#e66870"/><stop offset=".71" stop-color="#da787d"/><stop offset=".87" stop-color="#ce8c8d"/></radialGradient><radialGradient id="Dégradé_sans_nom_11-2" cx="982.53" cy="-876.7" fx="982.53" fy="-876.7" r="9.62" gradientTransform="translate(-485.74 1424.39) rotate(-16.31) scale(1.21 1.18) skewX(-3.1)" xlink:href="#Dégradé_sans_nom_11"/><radialGradient id="Dégradé_sans_nom_11-3" cx="1093.5" cy="-850.48" fx="1093.5" fy="-850.48" r="9.62" gradientTransform="translate(1500.55 1332.71) rotate(-93.57) scale(1.22 1.17) skewX(-.59)" xlink:href="#Dégradé_sans_nom_11"/><radialGradient id="Dégradé_sans_nom_11-4" cx="1566.63" cy="-708.99" fx="1566.63" fy="-708.99" r="9.62" gradientTransform="translate(601.5 1677.68) rotate(-67.4) scale(1 1.15) skewX(11.04)" xlink:href="#Dégradé_sans_nom_11"/><radialGradient id="Dégradé_sans_nom_11-5" cx="1145.01" cy="-1329.86" fx="1145.01" fy="-1329.86" r="21.11" gradientTransform="translate(1338.29 1110.94) rotate(-91.35) scale(.89 .69) skewX(-1.57)" xlink:href="#Dégradé_sans_nom_11"/><radialGradient id="Dégradé_sans_nom_11-6" cx="1285.13" cy="431.15" fx="1285.13" fy="431.15" r="9.62" gradientTransform="translate(25.7 1397.48) rotate(-67.21) scale(1 -1.11) skewX(-10.85)" xlink:href="#Dégradé_sans_nom_11"/><radialGradient id="Dégradé_sans_nom_11-7" cx="1066.53" cy="529.49" fx="1066.53" fy="529.49" r="9.62" gradientTransform="translate(270.96 1465.31) rotate(-73.69) scale(1.21 -1.18) skewX(-3.1)" xlink:href="#Dégradé_sans_nom_11"/><radialGradient id="Dégradé_sans_nom_11-8" cx="1033.14" cy="560.5" fx="1033.14" fy="560.5" r="9.62" gradientTransform="translate(601.61 1340.09) rotate(-86.43) scale(1.22 -1.17) skewX(-.59)" xlink:href="#Dégradé_sans_nom_11"/><radialGradient id="Dégradé_sans_nom_11-9" cx="783.76" cy="654.54" fx="783.76" fy="654.54" r="9.62" gradientTransform="translate(-503.91 1084.89) rotate(-22.6) scale(1 -1.15) skewX(11.04)" xlink:href="#Dégradé_sans_nom_11"/><radialGradient id="Dégradé_sans_nom_11-10" cx="1170.01" cy="844.62" fx="1170.01" fy="844.62" r="21.11" gradientTransform="translate(609.76 1111.08) rotate(-88.65) scale(.89 -.69) skewX(-1.57)" xlink:href="#Dégradé_sans_nom_11"/><radialGradient id="Dégradé_sans_nom_11-11" cx="-199.08" cy="23.54" fx="-199.08" fy="23.54" r="84.15" gradientTransform="translate(341.26 181.56) scale(.59 -1.31)" xlink:href="#Dégradé_sans_nom_11"/><linearGradient id="Dégradé_sans_nom_15" x1="186.36" y1="261.27" x2="174.25" y2="281.57" gradientTransform="translate(0 302) scale(1 -1)" gradientUnits="userSpaceOnUse"><stop offset="0" stop-color="#ef5b66"/><stop offset=".85" stop-color="#ce8c8d"/></linearGradient><linearGradient id="Dégradé_sans_nom_16" x1="224.61" y1="254.36" x2="224.84" y2="271" gradientTransform="translate(0 302) scale(1 -1)" gradientUnits="userSpaceOnUse"><stop offset="0" stop-color="#ef5b66"/><stop offset=".4" stop-color="#e36b73"/><stop offset="1" stop-color="#ce8c8d"/></linearGradient><linearGradient id="Dégradé_sans_nom_16-2" x1="207.92" y1="260.28" x2="206.93" y2="266.64" xlink:href="#Dégradé_sans_nom_16"/><linearGradient id="Dégradé_sans_nom_15-2" x1="1713.34" y1="260.81" x2="1701.24" y2="281.11" gradientTransform="translate(1979.1 302) rotate(-180)" xlink:href="#Dégradé_sans_nom_15"/><linearGradient id="Dégradé_sans_nom_16-3" x1="1858.22" y1="260.24" x2="1857.23" y2="266.61" gradientTransform="translate(2102.48 302) rotate(-180)" xlink:href="#Dégradé_sans_nom_16"/></defs><path class="cls-18" d="m274.24,108.12c12.7-8.29-.45-73.65-1.76-74.47,25.82,2.68,47.84,4.48,66.07,6.15,7.22.66,18.72,1.73,32.16-4.1,6.46-2.8,11.37-6.33,14.51-8.88,7.44-8.69,17.66-10.01,24.45-4.11,5.24,4.55,6.84,12,7.28,14.43,11.05-4.77,22.33,2.12,25.62,12.88,2.26,7.39.64,16.21-3.76,22.83.85,1.19,6.96,9.92,5.45,19.36-1.7,10.66-12.63,19.03-25.67,15.12-.44,3.63-1.82,11.05-6.58,15-7.42,6.17-20.84,2.02-30.38-12.93-3.65-1.73-9.3-4.07-16.34-5.58-10.19-2.18-18-1.48-21.77-1.16-14.14,1.22-38.23,2.92-69.3,5.45h0Z"/><ellipse class="cls-9" cx="399.93" cy="103.75" rx="7.75" ry="10.47" transform="translate(82.94 368.74) rotate(-54.44)"/><ellipse class="cls-6" cx="424.27" cy="86.4" rx="9.63" ry="10.79" transform="translate(218.88 467.56) rotate(-73.19)"/><ellipse class="cls-12" cx="423.47" cy="57.22" rx="10.67" ry="9.72"/><ellipse class="cls-4" cx="398.95" cy="39.96" rx="10.45" ry="7.77" transform="translate(84.21 288.35) rotate(-44)"/><path class="cls-10" d="m398.55,59.42c.25-.04.51-.06.77-.05,4.26.05,7.85,5.92,8.02,13.1s-3.15,12.97-7.41,12.92c-.26,0-.52-.03-.77-.08-1.05,2.69-3.23,4.51-5.79,4.48-3.68-.04-6.75-3.9-6.86-8.61-.03-1.33.19-2.59.59-3.71-.45-1.45-.75-3.28-.8-5.26s.16-3.8.55-5.25c-.45-1.13-.73-2.39-.76-3.73-.11-4.71,2.78-8.49,6.46-8.44,2.56.04,4.82,1.9,6,4.62h-.02Z"/><path class="cls-16" d="m272.48,33.65l51.18,4.82,23.18,1.85c5.21-.14,11.97-.95,19.56-3.56,7.95-2.74,14.26-6.6,18.82-9.94,5.92-7.38,14.6-9.35,21.61-5.06,7.31,4.47,9.73,13.81,10.11,15.38,7.45-4.6,16.7-1.8,22.03,6.6,5.5,8.65,5.46,21.01-.16,29.11.45.7,7.04,11.12,4.34,21.77-2.66,10.48-13.27,17.13-24.55,12.71-.44,2.26-2.51,11.75-9.24,15.8-8.24,4.95-20.41-.1-27.72-13.73-3.84-2.22-9.14-4.72-15.64-6.14-5.81-1.27-10.86-1.3-14.72-.96-25.69,1.94-51.36,3.88-77.05,5.82"/><path class="cls-18" d="m175.76,103.73c-12.7-8.29.45-73.65,1.76-74.47-25.82,2.68-47.84,4.48-66.07,6.15-7.22.66-18.72,1.73-32.16-4.1-6.46-2.8-11.37-6.33-14.51-8.88-7.44-8.69-17.66-10.01-24.45-4.11-5.24,4.55-6.84,12-7.28,14.43-11.05-4.77-22.33,2.12-25.62,12.88-2.26,7.39-.64,16.21,3.76,22.83-.85,1.19-6.96,9.92-5.45,19.36,1.7,10.66,12.63,19.03,25.67,15.12.44,3.63,1.82,11.05,6.58,15,7.42,6.17,20.84,2.02,30.38-12.93,3.65-1.73,9.3-4.07,16.34-5.58,10.19-2.18,18-1.48,21.77-1.16,14.14,1.22,38.23,2.92,69.3,5.45h0Z"/><ellipse class="cls-7" cx="50.07" cy="99.35" rx="10.47" ry="7.75" transform="translate(-48.44 47.65) rotate(-35.56)"/><ellipse class="cls-3" cx="25.69" cy="82.07" rx="10.79" ry="9.63" transform="translate(-22.63 10.93) rotate(-16.81)"/><ellipse class="cls-11" cx="26.53" cy="52.83" rx="10.67" ry="9.72"/><ellipse class="cls-5" cx="51.03" cy="35.64" rx="7.77" ry="10.45" transform="translate(-10.05 47.59) rotate(-46)"/><path class="cls-1" d="m51.45,55.04c-.25-.04-.51-.06-.77-.05-4.26.05-7.85,5.92-8.02,13.1-.17,7.18,3.15,12.97,7.41,12.92.26,0,.52-.03.77-.08,1.05,2.69,3.23,4.51,5.79,4.48,3.68-.04,6.75-3.9,6.86-8.61.03-1.33-.19-2.59-.59-3.71.45-1.45.75-3.28.8-5.26s-.16-3.8-.55-5.25c.45-1.13.73-2.39.76-3.73.11-4.71-2.78-8.49-6.46-8.44-2.56.04-4.82,1.9-6,4.62h.02Z"/><path class="cls-16" d="m177.52,29.26l-51.18,4.82-23.18,1.85c-5.21-.14-11.97-.95-19.56-3.56-7.95-2.74-14.26-6.6-18.82-9.94-5.92-7.38-14.6-9.35-21.61-5.06-7.31,4.47-9.73,13.81-10.11,15.38-7.45-4.6-16.7-1.8-22.03,6.6-5.5,8.65-5.46,21.01.16,29.11-.45.7-7.04,11.12-4.34,21.77,2.66,10.48,13.27,17.13,24.55,12.71.44,2.26,2.51,11.75,9.24,15.8,8.24,4.95,20.41-.1,27.72-13.73,3.84-2.22,9.14-4.72,15.64-6.14,5.81-1.27,10.86-1.3,14.72-.96,25.69,1.94,51.36,3.88,77.05,5.82"/><rect class="cls-2" x="194.72" y="257.93" width="22.63" height="31.48"/><path class="cls-2" d="m221.54,287.77c-.35,2.28-9.5,3.72-16.3,3.61-5.85-.1-14.37-1.42-14.72-3.61-.35-2.23,7.8-5.25,15.51-5.25s15.85,3,15.51,5.25Z"/><path class="cls-17" d="m196.57,287.6c.22.13.42,2.86.26,2.98"/><path class="cls-17" d="m216.03,287.67c-.22.13-.42,2.86-.26,2.98"/><path class="cls-17" d="m208.67,287.94c.23.34.31,2.77.12,3.09"/><path class="cls-17" d="m203.51,287.99c-.23.34-.31,2.77-.12,3.09"/><rect class="cls-2" x="234.48" y="258.04" width="22.63" height="31.48"/><path class="cls-2" d="m261.31,287.89c-.35,2.28-9.5,3.72-16.3,3.61-5.85-.1-14.37-1.42-14.72-3.61-.35-2.23,7.8-5.25,15.51-5.25s15.85,3,15.51,5.25Z"/><path class="cls-17" d="m236.34,287.73c.22.13.42,2.86.26,2.98"/><path class="cls-17" d="m255.79,287.79c-.22.13-.42,2.86-.26,2.98"/><path class="cls-17" d="m248.42,288.05c.23.34.31,2.77.12,3.09"/><path class="cls-17" d="m243.28,288.11c-.23.34-.31,2.77-.12,3.09"/><path class="cls-2" d="m295.41,133.12c.07,1.01.14,1.92.15,2.24.91,14.46,2.8,68.07-21.59,102.41-10.92,15.37-26.7,23.93-48.87,23.93s-38.75-8.68-49.61-24.25c-20.15-28.9-20.55-72.35-20.71-104.33-.12-23.06,2.51-34.44,3.55-38.55,4.71-18.66,12.13-26.42,27.18-48.02,11.08-15.91,31.42,2.76,40.07,2.3,7.45-.39,35.53-14.42,41.48-4.15,16.17,27.94,21.97,36.44,23.64,46.17.59,3.42,3.19,20.25,4.73,42.24h-.02Z"/><path class="cls-19" d="m225.1,230.3c-12.21,0-21.39-14.06-25.79-22.44-14.07-26.87-15.09-56.36-14.98-71.03.09-12.36.4-55.24,15.36-63.67,6.18-3.48,8.83,2.33,24.82,2.45,16.59.12,19.56-6.08,26-2.45,14.94,8.42,15.27,50.92,15.36,63.67.12,15.78-1.18,44.65-14.98,71.03-4.39,8.38-13.57,22.44-25.79,22.44h0Z"/><polygon class="cls-18" points="164.66 70.17 154.88 38.18 162.36 11.84 173.15 8.5 198.79 18.77 215.31 33.46 164.66 70.17"/><polygon class="cls-18" points="285.71 71.07 295.49 39.06 288 12.73 277.21 9.39 251.57 19.67 235.05 34.35 285.71 71.07"/><path class="cls-2" d="m289.81,81.2c.12.9,2.41,20.35-11.33,35.01-13.39,14.29-33.16,14.61-52.19,14.92-17.28.27-31.78.51-44.97-9.4-12.31-9.25-20.98-25.45-18.54-40.53,1.26-7.78,5.43-15.98,11.33-24.96,5.03-7.67,7.1-11.45,13.22-16.05,12.5-9.41,28.56-8.85,38.97-8.92,10.42-.06,25.4-.16,38.45,9.24,7.84,5.65,11.6,14.1,15.45,20.43,3.96,6.5,8.45,11.54,9.62,20.26h0Z"/><path class="cls-23" d="m203.72,32.81c-11.38-8.43-26.21-17.09-30.47-13.21-4.81,4.38-5.84,11.67-4.81,20.58.7,6,3.09,13.62,5.5,16.54,2.92-3.73,5.32-10.37,12.87-15.89,7-5.11,13.63-7.73,16.9-8.02h0Z"/><path class="cls-24" d="m217.88,31.43c.16,1.35,1.03,17.68,6.95,17.75,6.95.08,6.76-16.62,6.95-17.91"/><path class="cls-22" d="m203.72,35.41c.08,2.84.94,8.35,5.23,7.38,1.89-.81,1.99-5.68.86-9.4"/><path class="cls-20" d="m248.4,33.27c11.38-8.43,26.21-17.09,30.47-13.21,4.81,4.38,5.84,11.67,4.81,20.58-.7,6-3.09,13.62-5.5,16.54-2.92-3.73-5.32-10.37-12.87-15.89-7-5.11-13.63-7.73-16.9-8.02h0Z"/><path class="cls-21" d="m248.46,35.44c-.08,2.84-.94,8.35-5.23,7.38-1.89-.81-1.99-5.68-.86-9.4"/><path class="cls-14" d="m167.53,61.82c-.83,1.85-13.08,30.07,3.43,50.9,13.52,17.05,36.77,17.13,53.38,17.19,15.2.05,47.95.16,60.93-22.05,8.47-14.5,4.16-31.02.64-39.96-1.19-3-2.27-5.16-2.75-6.08"/><path class="cls-14" d="m236.16,30.07c21.3-18.03,40.96-25.63,50.12-19.45,3.94,2.65,5.05,7.25,6.35,12.97,4.1,18.04-1.55,34.34-6.4,44.34"/><path class="cls-14" d="m213.98,30.07c-21.3-18.03-40.96-25.63-50.12-19.45-3.94,2.65-5.05,7.25-6.35,12.97-4.1,18.04,1.55,34.34,6.4,44.34"/><path class="cls-14" d="m205.91,33.46c3.79-1.72,11.29-4.52,21.11-4.38,9.03.13,15.93,2.69,19.66,4.38"/><ellipse class="cls-8" cx="226.29" cy="71.39" rx="4.29" ry="1.14"/><path class="cls-14" d="m226.29,74.27c0,8.6-3.12,14.32-6.44,14.63-2.7.25-5.19-3.11-5.88-4.06"/><path class="cls-14" d="m226.26,74.74c0,8.6,3.12,14.32,6.44,14.63,2.7.25,5.19-3.11,5.88-4.06"/><line class="cls-13" x1="191.88" y1="70.17" x2="191.88" y2="78.24"/><line class="cls-13" x1="256.94" y1="70.2" x2="256.94" y2="78.26"/><path class="cls-15" d="m153.7,94.08c2.54-2.7,7.59-7.22,14.49-8.27,7.97-1.21,14.11,2.86,16.87,5.05"/><path class="cls-15" d="m153.14,107.35c2.14-3.58,6.52-9.9,13.48-13.59,8.05-4.25,15.19-2.69,18.47-1.65"/><path class="cls-15" d="m154.21,123.06c1.66-4.27,5.22-12,11.85-18.05,7.66-6.98,15.26-7.94,18.8-8.06"/><path class="cls-15" d="m296.54,90.54c-2.55-2.7-7.6-7.22-14.5-8.27-7.98-1.21-14.12,2.86-16.89,5.05"/><path class="cls-15" d="m297.1,103.81c-2.14-3.58-6.52-9.9-13.5-13.59-8.06-4.25-15.2-2.69-18.49-1.65"/><path class="cls-15" d="m296.02,119.52c-1.67-4.27-5.22-12-11.86-18.05-7.66-6.98-15.27-7.94-18.81-8.06"/></svg>